<svg viewBox="0 0 1600 685"><path d="M1106,209l2,2-3,0-2,1-4,1-5,1-2,2l2,2l1,3-1,2l0,2-1,2-4,0l3,3-3,1-1,3l1,4-1,1-2,0-3,0l0,2-4,0-2,3l1,4-5,2-3,0-1,1-3-1-4,1-8-3l3-4l0-4-4-1-1-3-2-4l1-3-2-1l1-3l0-7l5,2l3,0l0-3l4,0l2-2-1-4l4-1l0-2l2,1l2,1l2,0l3,1l2,0l3-1l1,1l1-3l3,0l0-2l1-2l3,1l0,2l1,0l1,4l2,2l1-1l2-1l2-2l3,0l4,0ZM896,457l0,1l0,3l1,2-1,2l0,2-9,0-1,16l3,4l3,3-8,3-11-1-3-3-18,1-1,0-3-2-3-1-2,1-2,1-1-3l1-4l2-5l0-2l1-5l1-2l3-3l2-3l0-3l0-3-1-2-2-3-1-3l1-2l1-2-1-5-1-3-3-3l1-1l2-1l1,0l2,0l13,0l1,3l1,4l1,1l2,3l3-1l2,0l2,0l1-1l1-3l3,0l0-1l2,0l0,2l5,0l0,3l1,2l0,3l0,3l1,2l0,6l1,0l2,0l3-1l2,1ZM844,431-1-4l2-2l1-1l2,2-2,1l0,1-1,3-1,0ZM870,182l1,1l1,0l1,1l1,1l0,2l0,1l1,3l2,1l0,1-2,1l0,2-2,2l0-1-3-2l0-3l0-3l0-2-1,0l0-2l1-3ZM1036,269l1,4-2,0l0,4l1,1-2,1l0,2-1,2l0,2-1,1-13-3-3-5l0-1l1,0l0,1l4-1l3,0l3,1l3-4l3-3l2-3l1,1ZM535,681-2,0-4,0-5-11l3,3l3,3l6,3l6,1-1,3-3,0-3-2ZM510,515l9,8l4,1l5,4l5,2l1,2-3,8l4,1l5,1l4-1l3-4l0-4l2-1l3,3l0,4-3,3-3,2-4,5-5,7l0,4l0,5l1,5-1,1l0,4l0,2l7,5l0,3l3,2l0,3-2,7-6,2-8,1-5,0l2,3l0,4l1,2-2,2-4,1-4-2-2,1l2,5l4,2l1-2l2,3-3,1-2,4l1,5l0,2-4,0-3,3l0,4l6,3l4,1l0,5-4,3l0,6-3,2-1,2l4,5l3,3-1,0-4-1-10-1-3-3-1-3-3,0-2-2-2-5l2-2l0-3-1-3l0-4-1-7-1-3l1-1-1-2-2-1l0-2-2-2-3-6l1-1-2-6-1-5l0-5l2-2-3-5-1-4l2-4-1-4l2-5-2-5-1-1-4-8l2-6-1-5l0-4l2-5l3-3-2-2l1-2-1-9l4-2l1-5l0-2l3-4l6,1l3,4l1-5l5,1l1,1ZM984,202-2,1-2-3l0-1-2,0-2-2l0,1-2-2-4-1l0-3-1-1l6-1l1,1l2,1-1,1l3,2-1,2l2,1l2,1l1,3ZM1394,610l3,2l3-1l4-1l2,0-3,6-3,2-3,4-1-1-5,3-1,0-2,0l0-4l2-4l0-4l2-3l2,1ZM1434,472l1,4l3-2l1,2l2,2-1,3l0,4l0,3l1,0l1,5-1,2l0,4l5,3l2,2l3,2-1,1l2,4l0,5l2-1l1,2l2,0-1,5l3,3l1,2l2,4l0,4-1,3-1,3l1,5-2,4-2,3-3,4-1,3-3,4-4,5-4,2-4,4-2,3-4,4-3,3-3,3-2,4-1,2-4,1-4,1-5,2-3,2-4,2-2-2-3-1l3-3-3,1-6,4-3-2-2,0-2-1-3-1-1-3l1-4l0-3-1-2-4-1l3-2l1-4-4,4-4,1l3-3l2-3l3-3l1-4-5,5-4,2-3,4-3-2l2-3-1-4-2-2l2-1-5-3-3,0-3-3-8,1-6,2-6,1-4,0-5,3-5,1-1,2-3,3-4,0-2,0-4-1-3,1-3,0-4,3-1-1-3,2-2,2-3-1-3,0-4-3-1-1l1-3l2-1l1-1l1-2l2-3l0-3l0-5l0-3l1-3-1-4l0-1-1-2l1-4-2-4l0-2l1,2l0-5l2,2l1,2l0-3-1-4l0-2-1-1l1-3l1-2l2-2l0-3l2-4l0,4l2-3l4-2l3-2l3-2l3-1l1,1l4-2l2,0l1-2l1,0l3,0l5-1l3-3l1-2l3-3l1-2l0-3l4-4l2,4l2-1-2-2l2-3l2,1l1-4l3-2l1-2l3-1l0-1l2,0l0-1l2-1l3-1l3,3l2,3l2,0l3,0l0-2l2-5l3-1-1-1l2-3l3-2l3,1l3-1l1-3-3-2l2,0l3,1l2,2l4,1l1,0l3,1l3-1l1,0l1-1l2,3-2,3-2,2-1,0l0,2-2,2-2,3l1,1l3,3l3,2l2,2l2,3l2,0l2,1l0,2l4,1l3-1l2-3l1-2l1-3l2-4l0-3l1-1l0-3l1-4l1-1-1-2l2-3l1-2l0-2l2-2l1,3l0,3l1,1l0,2l1,2l0,3l0,2ZM856,152l1,2l0,2-3,0l1,1-1,3l0,1-4,0-2,2-3-1-6-1-1-2-4,1l0,1-3-1-2,0-2-1l1-1l0-1l1,0l2,1l0-1l4,0l3-1l2,0l1,1l0-1-1-3l2,0l1-3l3,2l2-2l2-1l3,2l2,0l1,1ZM983,202-3-1-2-2-1-2l0-1l2,2l2,0l0,1l2,3ZM988,188l2-2l3,3l3,3l2,0l1,2-3,0l0,4l0,2-2,1l1,3-1,0-3-3l1-2-2-2-1,1-4,3-1-3-2-1-2-1l1-2-3-2l1-1-2-1-1-1l1-1l3,1l2,1l1-1-3-3l1,0l1,0l4,3l2,0l0-1ZM923,424-1,0-1-5l0-1-1-2l2,0l2-2l2,0l1,2l0,1l0,2-1,1-1,2-2,2ZM813,141l0,3-1,0l0,3-4-2-2,0-3-2-2-2-1,0-1-2l3-1l3,0l3-1l3,2l2,2ZM805,341l0,1l1,3-1,2l1,2-2,3-2,2-1,3l1,3-1,8-3,1-2-4l1-11-1-1l0-3-2-2-1-1l0-3l2-1l1-2l2,0l1-2l1-1l2,0l3,3ZM790,324-1,2l1,3l3,3l0,2l5,2l0,3-1,2-2,0-1,2-2,1-4,0-2-1-1,1-2,0-8,0l0,3l0,4-3-1-2,0-1,1-2-1-1-2-2-1-1-3l2-2l0-2l3-4l1-3l1-2l2,1l2-1l1-1l3-3l1-1l4-2l3-1l1,1l3,0ZM1200,288l1,4-2-1l1,4-2-2l0-3-1-2-3-3-4-1l1,2-1,3-2-1-1,1-1,0-2-1-1-4-2-4l0-3-3-1l1-2l2-2-3-3l1-3l4,2l2,0l1,4l4,0l4,0l3,1-1,5-2,0-1,3l3,2l0-3l1,0l3,8ZM906,177-2,2-1,4l2,3-4-1-4,2l0,2-3,1-3-2-4,1-3,0l0-3-2-2l0-1l0-2l2-1-3-2l0-2l1-1l1,2l2-1l3,1l6,0l2-1l4-1l4,2l2,0ZM866,171l2,0-1,3l2,2l0,2-1,0-1,1-1,1l0,3-4-2-2-2-2-2-2-1-1-2-2-2l1-2l1,1l1-1l2,0l4,0l2,0l2,1ZM913,130-3,0l1,2l1,3-3,1-1,1l0,2-1,0-4,0-1-1-1,1-2-1-3,0-5-1-4-1-3,0-2,2-1,0-1-2-1-3l2-1l0-2-2-1l0-3l4,0l3-1l1-3l3-2-1-2l2-1l4-2l4,2l1,1l2-1l3,1l1,3l0,1l3,3l1,1l0,1l3,1l2,1-2,1ZM390,319-1,0l1-6l0-4l1-1l1,1l2-4l1,0l0,1l0,2-1,2l0,1l0,1l0,1-1,3-1,1-1,0-1,2ZM530,505l0-1-5-3-4,0-7,1-2,5l0,3-1,6-1-1-5-1-1,5-3-4-6-1-3,4-4,1-2-7-3-6l1-5-3-2-1-4-2-3l2-6-2-4l1-2-1-2l1-2l0-5l0-3l1-2-5-8l4,0l2,0l1-2l4-2l2-2l6,0l0,3l0,2l0,4l5,4l5,1l2,2l3,1l2,2l3,0l3,1l0,3l1,2l1,2-2,0l2,6l9,0l0,3l0,2l3,2l1,3l0,4-1,2l0,3-1,1ZM532,391l2,0l1-1-1-1l0-1l2,0l2-1l3,2l2,1l1-2l1,0l1,2l2,0l2-2l1-4l3-5l2,0l1,3l2,9l2,1l1,3-4,4l1,2l9,1l0,5l3-4l6,2l7,3l3,3-1,3l5-1l9,2l7,0l7,4l5,6l4,2l4,0l2,2l1,6l1,3-2,9-2,3-6,7-3,6-3,4-1,1-1,3l1,10-1,8l0,3-2,2l0,7-4,7-1,5-3,2-1,3-5,0-7,2-3,3-4,1-5,4-4,5l0,4l1,3l0,5-1,3-2,3-4,9-3,4-3,2-1,5-2,3-2-3l2-2-4-4-3-3-5-3-2,0-5-4-3,1l5-7l4-5l3-2l3-3l0-4-3-3-2,1l1-3l0-3l0-3-2-1-1,1-2-1-1-1-1-5l0-2-4-1-1,1-5-1l0-7-2-3l1-1l0-3l1-2l0-4-1-3-3-2l0-2l0-3-9,0-2-6l2,0-1-2-1-2l0-3-3-1-3,0-2-2-3-1-2-2-5-1-5-4l0-4l0-2l0-3-6,0-2,2-4,2-1,2-2,0-4,0-2,1-2-1l0-8-4,3-4,0-2-3-3,0l1-2-3-3-2-5l2-1-1-2l3-1l0-3l1-2l0-2l5-4l4-1l0-1l4,1l2-15l0-2l0-3-3-2l1-3l2-1l1,0l0-2-3,0l0-3l9,0l2-2l1,2l1,3l1-1l2,3l4-1l1-1l3-1l2-1l0-2l4-2l0-1-4,0-1-4l0-3-2-1l1-1l4,1l3,1l1-1l4-1l5-2l2-2-1-1l2,0l1,1l0,2l1,1l1,2-1,2-1,4l1,3l1,2l2,3l3,0l0-1l2,0l2-1l1-2l3,1l1,0ZM1306,378l2-2l4-3l0,3l0,3-2,0-1,2-3-3ZM1191,258l2,1l1,4-4,0-4-1-2,1-5-2l0-1l2-4l2-1l3,1l3,0l2,2ZM902,492l2,4l0,1l2,3l5,5l1,1l0,2l2,3l3,1l3,2-7,4-4,4-1,3-2,2-2,0-1,3-1,1-3,2-3-1-2-1-2-1-2,1-2,3-2,1-2,3-3,0-1-2l0-3-2-5-1,0l0-15l5,0l0-19l4,0l7-2l1,2l3-2l2,0l2-1l1,1ZM897,357l3,2l3,2l0,2l3,3l2,2l1,3l3,2l1,2-1,0-3,0-4-1-1,1-1,1-2,0-1-1-5,3-2-1-1,1-1,3-4-1-3-1-3-2-4-1-2,1-2,3l0,3-3,0-3-1-3,3-2,5-1-2l0-2-2-2-2-2l0-2-2-3l0-1l0-3l0-4l1,0l2-6l4,0l1-1l1,0l1,1l5-2l2-2l3-2-1-2l1,0l5,0l4-2l3-6l2-2l3-1l1,2l2,4l0,2l0,2l0,1l2,2ZM532,162l2,1l4-1-2,3-2,0-4-2-1-2l2-2l1,3ZM544,150-2,0-4-1-3-3l1,0l5,1l3,2l0,1ZM297,153-3,1-5-2l0-2-2-2l0-1-3-1l0-3l2-1l3,1l2,1l3,0l0,2l1,2l2,2l0,3ZM569,142-4,5l3-2l3,1-2,2l3,1l2-1l3,1-2,4l3-1l0,3l0,3-2,4-2,1-3-1l2-4-1-1-6,4-2,0l4-2-4-2-4,1-8,0l0-2l3-2-1-1l4-3l6-8l4-3l4-1l1,0-1,1-3,3ZM281,125l1,1l4-1-5,6l0,4-2,0l0-2l0-3l0-1l1-2l1-2ZM507,87-3,3-1-1l0-1l0-1l2-1l2,0l0,1ZM500,84-6,2-2,0l0-1l4-2l5,0-1,1ZM497,71-1,2l2-1l1,2l3,1l3,2-1,2l3-1l1,2-4,1-4-1-1-2-5,3-7,2l1-3-5,1l4-3l3-3l4-4l3,0ZM533,64-4,1l0-2l3-3l4,0l2,1-2,2-3,1ZM474,55-3,1-4-1-3,1-2-2l4-2l3-2l3,2l1,0l0,1l1,2ZM516,170-1-3l2-7-1-1-3,1-1-2-5,4-2,4-2,2-2,1-2,0-1,2-7,0-6,0-2,1-6,3-1,0-1,0-2,1-1,0-4,0-3,1-2,1-1,1l1,1l1,0l1,0-1,1-3,1-3,0-1,1-2,0-1,0-3,1-3,2-3,0l2-2l3-3l3-2l1-1l1-3l3-2l1-4l1,4l3,0l1-1-1-4l0-2-4-1-3,0-3,0-2-1-1-1-1,1-1-1l2-1-2-1l2-2-1-1l1-2-4,0l0-3-1-1-2,0-4-1-1,1-1,1-3,1-2,2-5-2-3,1-3-2-4,0-3-1l0-1l0-2-1,0-1,2-8,0-14,0-13,0-12,0-12,0-12,0-12,0-4,0-12,0-11,0-5-5-1-2-6-2l1-5l3-3-3-2l3-4-2-3l2-3l4-2l2-3-3-3l1-6l1-3-1-2-1-2l0-3-5,2-6,2l0-3-1-2-2-1-3,0l28-26l20-17l5,1l2,2l3,1l5-2l6-1l4,0l7-2l7-1l0,2l4-1l3-2l2,0l1,4l7-3-3,4l5-1l2-1l4,0l3,2l6,1l4,1l4,0l2,2-7,2l5,1l10,0l3-1l1,2l6-2-2-2l4-1l4,0l3-1l2,1l1,3l4-1l4,2l6,0l5,0l2-3l3-1l4,2-3,4l5-4l2,0l6-4-2-3-2-1l4-5l7-3l4,1l1,1l0,5-4,2l5,1-3,5l7-4l2,3-4,3l1,3l6-3l5-4l4-4l4,0l5,1l3,2-2,2-4,2l1,2-2,3-9,3-5,0-3-1-2,2-6,4-3,2-6,3-5,0-4,2-2,3-5,1-7,4-7,5-4,4-4,5l5,1-2,4l0,4l6-1l5,2l3,2l1,2l4,2l3,2l6,0l4,0-3,5-1,4l0,6l3,5l4-2l4-5l2-8-1-2l7-3l6-3l4-3l1-4l0-4-3-3l8-5l0-4l3-8l4-1l5,2l3,0l4-1l2,1l3,3l0,2l7,0-3,4-1,6l3,1l1,3l6-3l6-5l4-2l1,4l2,6l1,6-2,3l4,2l2,3l5,1l2,2l0,4l3,1l1,2-2,5-3,2-4,2-7,1-6,4-7,1-8-1-6,0-4,0-4,4-6,2-8,7-7,5l4-1l9-7l10-4l6-1l2,3-5,3l0,6l0,3l4,3l7-1l6-5-1,3l2,2-6,3-10,3-4,2-6,4-3,0l1-5l9-4-7,0-5,1ZM431,38-4,2l9-1l2,2l6-2l1,1-2,4l4-2l2-4l4-1l2,1l2,2-2,4-2,3l3,2l4,2-2,2-6,0l1,2-3,1-5,0-5-1-4,0-7,1-9,1-7,0l1-2-4-1-3,1-1-4l3,0l6-1l4,0l5-1-5,0-7,0-5,0l0-2l10-2-5,1-5-2l6-3l5-1l11-3l2,1ZM462,37-6,2-2-2l2-1l4,0l2,1ZM549,39-1,1-3,0-3,0-4,1-1-1-2-2l2-1l1-1l7,1l4,2ZM517,38l0,2l6-3l9-2l2,5-3,2l8-1l4-2l5,3l3,2-1,1l7-1l2,3l6,2l2,2l1,4-8,2l7,2l4,1l3,4l5,1-2,3-9,5-3-2-3-4-5,0-2,3l2,3l4,2l1,1-1,4-2,4-4-2-7-3l3,4l2,3l0,1-9-2-6-2-3-3l2-1-4-2-4-2l0,1-11,1-2-2l5-3l6,0l7-1l0-2l3-2l7-4l0-2l0-2-4-2-6-1l3-1-2-3-2,0-2-2-2,2-7,0-11-1-6-1-5-1-1-1l5-2-5,0l3-4l6-4l5-2l8-1-4,3ZM477,36l2,1l6-1l0,2-5,2l3,1-4,4-7,2-2-1-1-1-5-3l2-2l5,1l0-3l6-2ZM495,40-7,4-3-1l1-3l2-2l4-2l4-1l6,0l5,1-8,4-4,0ZM402,46-11,2l1-2-5-2l3-2l6-3l6-2l1-3l11,0l3,0l8,1l1,1l2,2-5,1-12,2-7,3-2,2ZM503,31-3,2-4,0-3-1l4-2l5-1l1,1l0,1ZM496,24l0,2-2,2-5,3-5,1-3-1l3-2-5,0l3-3l3,0l6-1l4,0l1-1ZM464,26-1,1l4-1l2,0-1,2-5,2-11,1-9,2-5,0l1-2l8-1-14,0-3-1l9-3l4-2l7,2l2,2l5,0l1-3l5-2l2,1-1,2ZM509,23l2,1l6,0l1,2-2,1l2,1l1,1l4,0l4,0l6,0l6-1l5,0l2,2-1,2-3,1-5,1-4-1-9,1-6,0-5-1-7-1l1-2l2-2-1-2-6,0-2-2l3-1l6,0ZM448,20-5,3-4,1-3,0-8,2-6,1-3-1l10-3l9-3l5,1l5-1ZM513,21-2,1-5-1l0-1l6,0l1,1ZM466,20-7,1-2-1l4-2l5,0l3,1-3,1ZM472,17-5,1-5,0l1,0l5-2l1,1l3,0ZM510,19-5,1-1-1l0-1l2-2l3,1l2,0l2,1-3,1ZM499,18-1,2-4,0-3-2-6,0l4-1-2-1l1-1l5,0l6,2l0,1ZM542,13l3,1-6,1-8,3-6,0-5-1-1-1l1-1l4-1-5,0-2-2l0-1l4-2l3-1l4,0-1-1l7,0l1,2l4,1l4,0-1,3ZM605,2l7,1l5,0l4,1-1,1-7,1-8,1-3,0l6,0-8,2-6,1-7,3-7,1-2,0-9,1l3,0-2,1l0,2-4,1-5,1-3,1-5,2-1,1l5-1l0,1-11,3-6-1-10,0-4,0-5-1l2-1l6-1l2-3l2,0l6,1-2-2-4-1l4-1l6-1l3-1-3-2l1-1l8,0l1,0l6-1-6-1-10,1-3-2-1-1-2-1l1-1l5-1l3,0l6,0l6-1l3,0l2,1l4-2l4,0l5-1l8,0l1,0l9,0l5,0l6,0ZM827,158l0,1-1,1l2,1l2,0l0,2-2,1-3-1-1,2-2,1l0-1-3,2-2,0-1-1-2-2-2,0l0-2l3-3l0-1l2,0l1,0l3,0l1-2l5,2ZM1281,305-4,2-4-2l0-4l1-2l5-2l3,0l1,2-2,3l0,3ZM1300,148l8,4l4,5l7,0l2-2l5-2l1,5l0,2l2,5l1,5-6-1-2,2l4,4l3,6-2,0l1,3-4-3l0,3-5,2l2,3-4-1-3-1l0,3-4,3-1,3-5,2-2,2-4,2l1-3-2-2l2-3-4-3-3,2-2,4-2,3-4,0-1,3l4,3l4,1l1,2l4,2l3-4l5,2l3,0l2,3-6,1l0,3-3,3-1,3l5,3l4,5l5,5l4,4l1,3-2,2l2,3l3,1l1,4l0,4-2,1-2,5-2,7-3,6-5,5-5,4-5,1-2,2-2-1-2,2-6,3-5,1l0,5-3,0-1-3l0-2-6-2-2,1-5-2-2-2l0-3-4-1-2-1-4,2-4,1-4,0-2,1-2,1l2,6-3,0l0-2-1-2-3,2-2-1-3-2l0-4-3-1-2-5-4,1-1-6l4-5-1-4-1-4-2-1-2-3-3,0-5,0l1-3-3-3-2,2-4-1-4,3-4,4-3,1-2-2-3,0-3-1-2,1-2,4-1-4-3,1-5,0-5-1-4-3-4-1-2-2-2-1-6-3-3-2-2,1-7-3-5-3-2-6l3,1-1-3-2-3-1-4-6-6-7-2-3-4-3-2-2-2-1-3l0-2-3-1-2,1-2-5l1-1-1-1l3-3l3-1l4,1l1-3l5-1l1-2l5-3l0-1-1-3l2-1-7-9l8-2l1-1-1-9l9,2l1-3-2-5l3,0l2-3l1-1l3,4l4,2l7,2l5,4l1,6l2,2l5,1l6,1l7,3l2,1l4,4l4,3l4,0l10,1l5,0l4,0l8,3l5,0l2,2l4-3l6-2l6,0l4-1l1-3l2-2-1-2-3-2l1-3l2,1l5,1l2-3l6-2l1-3l2-2l5,0l4,0-1-2-6-3-4-2-2,2-4-1-2,1-2-2-1-5l0-4l6,2l3-3-1-2l0-5l1-2-2-3-3-1l1-2l4-1l5,0l7,1l5,2l6,5l3,2l4,3l4,5l8,1ZM764,348l2,1l1,2l2,1l1-1l2,0l3,1l2,7-2,5-2,5l2,5l0,2-2,0-3-1-3,0-5,1-3,1-5,2-1,0l0-4l1-1l0-2-2-2-2,0-1-2l1-2l0-3l0-1l1,0l0-2l0-1l0-1l2-1-1-4-1-2l0-2l1,0l2,0l3,0l1-1l1,0l1-1l1,3l1-1l2-1ZM858,363-2,6-1,0l0,4l0,3l0,1l2,3l0,2l2,2l2,2l0,2l1,2-1,3-3-2-4-1-6,0-3,0-3,0-2,0-7,0l1-4-2-4-2-1-1-2-1-1l0-1l1-4l2-5l1,0l3-3l2,0l2,2l3-1l1-3l1-2l0-2l3-2l1-4l1-1l0-3l1-3l4-4l0-2l1-1-2-2l0-1l1-1l2,4l1,3-1,4l3,4-3,0-1,0-2,0-1,2l3,3l2,1l0,2l2,4-1,1ZM913,374l3,4l2,0l1,0l2,0l3-1l1,2l4,3l0,6l1,1-1,2-2,1-1,3-1,2-1,4-1,2l0,4-1,2l0,3-1,0l0,3l1,2l0,1-1,8l1,3-1,2l2,4l2,3l1,3l1,1l0,1-1,0-6,1-1,0-1,4l1,2-1,6-1,5l1,1l3,2l2-1l0,6-4,0-1-3-2-3-4,0l0-3-3,2-4-1-1-2-3-1-2,0-1-1-1,0-2-1-3,1-2,0-1,0l0-6-1-2l0-3l0-3-1-2l0-3-5,0l0-2-2,0l0,1-3,0-1,3-1,1-2,0-2,0-3,1-2-3-1-1-1-4-1-3-13,0-2,0-1,0-2,1-1-2l1,0l1-3l0-1l2-1l1,1l2-2l2,0l0,1l2,1l3-3l2-3l2-1l0-5l2-5l2-2l3-3l0-1l0-2l1-2l0-3l0-5l1-3l1-2l1-4l0-3l2-3l2-1l4,1l3,2l3,1l4,1l1-3l1-1l2,1l5-3l1,1l2,0l1-1l1-1l4,1l3,0l1,0ZM872,383-1,4-1,2-1,3l0,5l0,3-1,2l0,2l0,1-3,3-2,2-2,5l0,5-2,1-2,3-3,3-2-1l0-1-2,0-2,2-1-1-2-2-1,1-2,2-4-5l4-3-2-3l2-2l3,0l0-3l3,3l4,0l1-2l0-4l0-4-2-3l2-6-1-1-4,1-1-3l0-2l6,0l4,1l3,2l1-3l2-5l3-3l3,1l3,0ZM467,340-3,1-2,2-2,2-1,2-1,3-1,3l2,1l1,2l1,1l0,2-1,2l0,1l1,1l1,2l6-1l3,1l3,4l2,0l3,0l3-1l1,1-1,3-1,2l0,3l1,4l1,1l0,1-2,3l1,1l1,2l2,5-1,1-1-3-1-2-2,2-9,0l0,3l3,0l0,2-1,0-2,1-1,3l3,2l0,3l0,2-2,15-2-3-1,0l3-6-4-2-3,1-1-1-3,1-3-1-3-5-2-1-2-3-3-2-1,0-2-1-2-2-1,1-4-1-1-2-1,0-5-3l0-1l2-1-1-2l2-2l2,0l2-4l2-2-2-2l1-2-1-5l1-2-1-4-1-3l0-2l2,0l1-1-1-3l0-1l3,0l3-3l2-1l0-2l1-4l3-2l3-1l0-1l4,1l4-3l2-1l2-2l1,0l1,1l0,2ZM411,345l1,3l1,2l2,2-2,1l0,2l1,1l0,1-1,1l0,1-2-1-1-1l0-1l0-1-1-1-2-1-1-1l0-1-2-1l1,1-1,1-1-1-2-1l0-1l0-1l1-2-2,0l1-2l1,0l3,1l1,0l2,0l0,1l2,0l1-1ZM435,284l1,1l5,0l1,1l3,3l3,3l1-1l3,2-1,1l4,0l3,2-1,1-3,1-3,0-3,0-6,0l3-2-2-2-3,0-1-2-1-2-2,0-4-2-1-1-6-1-2-1l2-1-4,0-4,3-1,0-1,1-2,1-2-1l2-2l2-1l2-2l2-1l4,0l1-1l3,1l4,0l4,2ZM847,140l2,2l3,0l0,2l2,1l0-2l3,1l1,1l3,1l2,2-2,0l0,1-1,0l0,1-1,1-1,1-2,0-1,1-1-1-2,0-3-2-2,1-2,2-3-2-2-2-2-1-1-2-1-2l3-1l1-1l3-1l1-1l1,1l2-1ZM843,127l1,3-1,1l2,2l1,2l0,2l2,3-2,1-1-1-1,1-3,1-1,1-3,1l1,2l1,2l2,1l2,2-1,3-2,0l1,3l0,1-1-1-2,0-3,1-4,0l0,1-2-1-1,0-5-2-1,2-3,0l0-4l2-3-6-1-1-2l0-2-1-1l0-3-1-6l3,0l1-1l0-5l0-2l0-1l3,0l1,1l3-2-1-2-1-3l3,1l3-1l0,2l4,1l0,2l4-1l2-1l4,2l2,1ZM983,342-2,2-1-1-1,1-3,0l0-2l0-1l1-3l2-2l2,1l1-2l1,2l0,2-2,1l2,2ZM836,118-2,4-4-3-1-2l6-1l1,2ZM826,121-3,1-3-1-1-2-1-5l1-2l1-1l3,0l1-2l3-1l0,2-1,2l1,1l2,1-1,2-1-1-2,4l1,2ZM468,308l0-2-1-1l1-1l1-2-1-3l1-1l4,0l2,2l1,0l1,1l2,0l0,2l2,0l2,2-2,2-2-1-2,0-1,0-1,1-2,0-1-1-1,1-2,3-1-1l0-1ZM824,211-1,2l1,5-1,4-3,3l1,4l3,3l1,1l2,3l2,9l2,4l0,3l0,4l0,2-1,3l1,3-2,2l3,4l0,2l2,3l2-1l3,3l2,3-15,10-13,10-6,2-5,1l0-4-2-1-3-1-1-2-15-12-15-11-16-12l0-1l0-1l0-6l7-3l5-1l3-2l2-2l5-2l0-4l3-1l2-1l5-1l1-2-1-1-1-6-1-3-1-3l4-3l5-1l2-2l4-2l7,0l8-1l2,1l4-2l4,0l2,1l3,0ZM447,402l1,4-2,3-4,6-6,2-2,4-1,4-3,2-2-3-2,0-1,0-1-2l2-1-1-2l2-4-1-2-1,2-3-2l1-1-1-5l2-1l0-3l2-3l0-2l2-2l3-2l5,3l1,0l1,2l4,1l1-1l2,2l2,1ZM937,241l3,8l0,1-1,2l0,4-1,3-1,0-2-1-2-2-4-8l0,1l2,5l3,5l4,8l2,3l2,3l4,6-1,0l0,4l6,4l1,1-18,0-17,0-18,0-1-18-1-19-1-4l1-3-1-2l1-3l6,0l4,2l5,1l2,1l3-2l2-1l3-1l3,1l2,3l1-2l3,1l4,0l2-1ZM983,336-1,2-2-1-2-2-2-3-2-1-1-2-4-2-3,0-1-1-3,1-3-2-1,3-5-1-1-2l2-7l0-4l1-1l4-1l2-3l3,6l1,5l3,2l6,5l3,3l2,3l2,2l2,1ZM890,99l1,0-2,3l2,5-2,1-3,0-3-2-2,0-3,1l0-3-1,0-3-1-1-3l5-1l4-1l4,1l4,0ZM965,326l3,0l4,2l1,2l2,1l2,3l2,2-2,2-1,3l0,1l0,2l3,0l1-1l1,1-1,2l2,3l2,2l1,2l15,6l4,0-12,16-6,0-4,4-3,0-1,1-3,0-2-1-4,2-2,2-3-1-1,0-1,0-1,0-6-4-3,0-2-2l0-3-2-1-3-5-2-2-1-2-2-2-3-1l2-2l2-1l1-1-1-4l0-1l2-5l2-2l0-2l2-4l3-2l1-5l1-5l5,1l1-3l3,2l3-1l1,1ZM883,56l1,3l5,3-2,3l5,5-1,4l4,4-1,3l6,3-1,2-2,3-7,6-6,0-6,2-6,1-2-3-4-1l0-5-3-4l2-3l2-2l7-5l2-1l0-2-5-2-2-2-1-7-6-3-5-2l2-1l4,2l4,0l4,1l3-2l1-3l4-2l5,2-1,3ZM848,389l0,2l1,3l4-1l1,1-2,6l2,3l0,4l0,4-1,2-4,0-3-3l0,3-3,0-2,2l2,3-4,3-4-5-3-5-3-5l0-2l1-1l1-4l1-4l2,0l6,0l0-6l2,0l3,0l3,0ZM765,126-2-1-3,0l1-3-1-3l4,0l4,3-3,4ZM778,103-4,5l4-1l4,0-1,4-4,4l4,1l1,0l3,6l2,1l3,5l1,2l5,1-1,3-2,2l2,2-4,3-5,0-7,1-1-1-3,2-4,0-3,2-2-1l6-5l4-1-6-1-1-2l4-2-2-2l1-4l5,1l1-3-3-3-4-1-1-1l1-2-1-2-2,3l0-5-2-3l2-4l3-4l3,0l4,0ZM972,182l4,1l1,2l3,2-1,0l3,3-1,1-2-1-3-1-1,1-6,1-4-3-5,0l1-2-2-3-3-2-2-1-2-1l0-1l4,1l6,1l6,2l1,1l3-1ZM789,344l0,1l2,3l0,4l0,4l1,2-1,4l1,3l1,3l1,2-7,3-3,2-4,1-4-1l0-2-2-5l2-5l2-5-2-7l0-4l0-3l8,0l2,0l1-1l2,1ZM737,337l0,1l1,0l1,0l1,0l1,1l2,1l1-1l2-1l1-1l1,0l1,1l0,2l2,2-1,1l0,2l1-1l1,1-1,2l2,1-1,0l0,2l1,2l1,4-2,1l0,1l0,1l0,2-1,0-1,0-1,2-2,0l0-1l0-2-2-3-1,0-1,0-1,1l0-2-1-2l0-1-1-2-1-2-4,0-1,1-1,0-1,1l0,1-3,3-2-3-1-2-2-1-1-1l0-2-1-1-1-1l2-3l1,0l1,0l1-1l1,0l0-2l0-2l3,0l3,1l1,0l0-1l3,1ZM713,333l1-2l5,0l1-2l1,0l2,1l1,0l2,0l1,1-2,1-2,0-2-1-2,1-1,0-1,1-4,0ZM727,336l0,2l0,2-1,0-1,1-1,0-1,0-2,3-3-2-1-1-1-1l0-1-2-1l0-1l2-1l2,0l1,0l8,0ZM840,389l0,6-6,0-2,0-1,0l2-6l7,0ZM890,218l3,2l3,0l3,0l0,1l2-1l0,2-6,0l0-1-5-1l0-2ZM897,191-3,0-2-1-5,2l3,2-2,1-2,0-3-2l0,1l1,3l2,2-1,1l2,3l2,1l1,3-4-1l1,2-2,1l2,4-3,0-4-2-2-4-1-3-2-3-2-3-1-1l2-2l0-2l2-1l0-1l2-1l2-1l2,0l1-1l3,0l4-1l3,2l3-1l0-2l2,1-1,3l0,1ZM717,1l16,3-5,1-11,0-15,0l2,1l9-1l8,1l6-1l2,2-4,1l7-1l14-1l8,1l1,1-11,2-2,1-9,1l6,0-4,2-3,3-1,4l3,3-4,0-6,1l6,2-1,3-3,1l3,3-7,0l4,2-2,2-4,0-5,0l4,3-1,2-6-2-1,1l4,1l3,3l1,3-6,1-2-2-4-2l1,3-5,2l9,0l4,1-9,3-10,4-10,1-4,0-4,2-6,5-8,3-2,0-5,1-5,1-4,3-1,3-3,3-7,4l0,3-3,4-3,5-5,0-4-4-7,0-3-2-1-5-3-6-1-3l1-4-3-4l3-3-2-2l6-5l6-1l2-2l2-4-4,2-2,1-4,0-3-1l1-3l3-2l3-1l6,2-5-3-2-1-3,0-2-1l5-4-1-1-1-3-1-5-3-1l2-2-7-2-6,0-8,0-8,0-2-1-3-3l8-1l7,0-12-1-5-2l1-1l13-2l12-2l2-1-6-1l3-1l12-3l5,0l0-2l7,0l9-1l8,0l2,1l9-2l5,2l4,0l5,1-5-2l1-1l10-2l9,0l4-1l10,0l21,0ZM390,310l0,4-1,6l1,0l2,1l0-1l1,1-2,2-2,1-1,1l1,1-1,1-2,1l1,0-1,1-2,1l0,1-2-1-3,0-2-1-2-2l0-2l1-1-1-1l3-4l5,0l1-2-1,0l0-1-2-1-1-2l2,0l0-3l4,0l4,0ZM530,370l0,4-3,2l0,1-1,3l2,3l1,0l1,3l3,5-1,0-3-1-1,2-2,1-2,0l0,1-3,0-2-3-1-2-1-3l1-4l1-2-1-2-1-1l0-2-1-1-2,0-3-4l1-2l0-2l3-1l1-1-1-2l0-1l4-4l3,2l2,4l1,2l1,0l3,3l1,2ZM415,324-2,0-1,1-1,1-1,0-1,0-1,0-1-1l0,1-1,1-1,0l0,1-1,1-1,1-1,0-1-1-1,2-1,0-1,0l0,2-1,0-1,2-1,0-1-2-1,0l1-2-1-1-1,0-2,0-1-1-1-1-1-1l1-1-1-1l1-1l2-1l2-2l1,0l1-1l1,0l1,0l2,1l2-1l2,0l0-1l2,1l1,0l1,0l1-1l2,1l1,0l1,1l1,1l2,1l1,1ZM865,166l1,2l2,2-2,1-2-1-2,0-4,0-2,0-1,1-1-1-1,2l2,2l1,2l2,1l2,2l2,2l4,2-1,0-4-1-2-2-4-2-4-3l1-1-2-2l0-2-3,0-1,2-1-2l0-2l3,0l2,0l1,0l0-1l1-1l1-2l3-1l1,1l3,2l4,1l1-1ZM469,300l1,3-1,2-1,1l1,1l0,2-3-1-2,0-3,0-2,1-3-2l1-1l4,0l3,1l2-1-2-3l1-2-3,0l1-2l3,0l3,1ZM876,153l2,1l1,1-3,1-1,4-2,3-3,1-3,0-3,1-1,1-4-1-3-2-1-1-1-2-1,0l1-3-1-1l3,0l0-2l2,1l1,1l4-1l0-1l2,0l1-1l1,1l2-1l0-1l2-1l4,2l1,0ZM1334,454-2,0-6-3l5-1l2,1l1,2l0,1ZM1353,447l0,1l0,2-3,4-4,1-1-1l1-2l2-3l5-2ZM1322,443l2,1l3,0l1,2-6,1-3,1-2,0l1-3l3,0l1-2ZM1344,443-1,3-7,1-6,0l0-2l4-1l3,1l3,0l4-2ZM1280,436l8,1l1-2l9,2l1,3l7,1l5,3-5,2-5-2-4,0-5,0-4-1-5-2-3,0-2,0-8-2-1-2-4,0l3-5l6,0l3,2l2,0l1,2ZM1398,433-3,4l0-4l1-2l1-2l1,2l0,2ZM1365,419-2,2-3-1-1-2l5,0l1,1ZM1380,417l1,4-4-2-3,0-3,0-3,0l1-3l6,0l5,1ZM1428,414l0,17-2,16-3-4-5-1-1,1-6,1l2-5l3-1l0-6-2-4-9-4-3-1-7-4-2,2-1,1-1-2l0-3-3-2l4-2l4,0-1-1-6,0-2-3-4-1-2-3l6-1l3-2l7,2l1,2l1,9l4,3l4-6l5-3l4,0l4,2l4,2l4,1ZM1357,394-3,5-4,1-4-1-8,1-4,0l0,4l4,5l2-3l9-1-1,2-2-1-2,3-4,2l4,7-1,2l4,6l0,3-3,1-1-1l2-5-4,2-1-1l0-2-3-3l1-5-4,1l1,6-1,8-2,1-2-2l1-5l0-5-2,0-1-3l2-4l0-4l3-7l1-2l3-4l4,1l6,1l5,0l4-4l1,1ZM1372,395l0,4-3,0l0,3l1,2-1,1-2-3-1-7l1-4l1-2l1,3l2,1l1,2ZM1286,391l1,4l3,3l3-2l3,1l3-3l2,0l4,1l4-1l2-7l2-2l1-6l5,0l4,1-2,5l3,5l0,2l5,5-6,0-1,4l0,5-4,3-1,5-2,8l0-2-5,3-2-4-3,0-3-2-5,2-1-2-4,0-3,0-1-7-2-2-2-4-1-5l1-4l2-4ZM1268,431-5,0-3-5-6-4-2-3-3-4-2-4-4-7-4-5-1-4-2-4-4-3-2-5-4-2-5-6l0-3l3,1l7,0l4,6l3,3l3,2l4,6l5,0l4,3l3,5l3,2-2,4l3,2l1,0l1,4l2,2l3,1l2,3-1,7-1,8ZM1142,246-2,3-1,5l5,2l4,2l7,3l6,1l3,2l3,1l6,1l3,0l1-2-2-4l0-2l3-1l1,4l0,1l5,2l2-1l4,1l4,0-1-4-2-1l3-1l4-4l4-3l4,1l2-2l3,3-1,3l5,0l1,2-1,1l1,3-4-1-5,4l1,3-2,4l1,3-2,4-3-1l0,5l0,2l0,2-2,1-3-8-1,0l0,3-3-2l1-3l2,0l1-5-3-1-4,0-4,0-1-4-2,0-4-2-1,3l3,3-2,2-1,2l3,1l0,3l2,4l1,4l0,2-3,0-5,1l0,4-2,3-6,3-4,6-3,4-4,3l0,2-2,2-4,2-2,0-1,4l2,6l0,5-1,5l1,8-3,0-2,4l2,2-4,2-2,3-1,2-5-5-2-7-2-6-2-2-3-5-1-6-1-4-5-7-3-10-2-6-1-6-1-5-6,3-3-1-7-6l2-2-2-2-5-4l2-4l10,0-1-4-3-3-1-4-4-2l4-5l6,0l3-5l2-5l3-6-1-3l3-3-4-3-2-3-3-5l2-2l7,1l4-1l3-4l6,6l1,4l2,3l1,3-3-1l2,6l5,3l7,3ZM765,126l1,3-3,4-7,3-6,0l4-5-2-5l5-4l3-3l1,3-1,3l3,0l2,1ZM983,202l2-1l4-3l1-1l2,2-1,2l3,3l1,0l2,3l4,2l4,2l6,1l6-1l1-2l3-1l2-3l3,1l2-1l3,0l5,3l4,0l6,5l3,0l1,4l0,7-1,3l2,1-1,3l2,4l1,3l4,1l0,4-3,4l3,3l2,3l5,2l0,5l3,1l0,2-6,3-1,6-8-2-5-1-5-1-3-6-2-1-3,1-4,2-6-1-5-4-4-2-4-5-4-6-2,0-3-1-1,2-3-3-1-3-1,0l0-3-3-4-5-3-4-5l0-4l2-2l0-3-3-1-4-6-3-5l0-1-2-6l3-1l1,2l2,2l3,1ZM978,210l4,6l3,1l0,3-2,2l0,4l4,5l5,3l3,4l0,3l1,0l1,3l3,3-3,0-3-1-3,5-8,0-13-11-7-3-6-2-2-6l9-5l1-7-1-3l2-2l1-3l2-1l5,1l2,1l2,0ZM739,67-1,2l3,4-5,3-10,3-3,1-5-1-9-1l4-2-8-2l7-1l0-2-7-1l3-3l5,0l5,3l5-3l4,2l6-3l6,1ZM943,230l1,2-1,0l0,2-2-1-1,4l2,0-1,1-1,1l2,0l1,2-2,8l0-1-3-8l1-2-1,0l1-2l1-4l0-1l2,0l0-1l1,0ZM854,205-2,4l1,2-1,2-3-2-2,0-6-3l0-2l5,0l4,0l4-1ZM827,189l3,4l0,6-2,0-2,2-2-2l0-6-1-3l2,1l2-2ZM844,163-1,3l2,2-4-1-3,2l0,2l0,2l2,2l4,3l2,4l5,4l3,0l1,1-1,1l4,2l3,2l4,2l0,1l0,2-3-2-4-1-1,3l3,2l0,3-2,0-2,4-2,1l0-2l1-3l1-1-2-3-1-2-2-1-2-2-2-1-2-2-3,0-4-3-4-3-3-3-1-5-2,0-4-2-1,1-3,2-1,0l0-2-2-1-2-3l2-2-1-2l0-1l1,1l2,0l3-2l0,1l2-1l1-2l3,1l2-1l0-2l3,1l0-1l4-1l1,2l6,1ZM445,309-1,1-3-1-2-2l1-1l2-1l1,0l3,1l2,1l0,2-3,0ZM958,236l0,1-9,3l5,5-1,1-1,1-3,1-1,2-1,2-5-1-1-1l2-8-1-2l1-2l0-3l0-2l5,3l8-6l2,6ZM1366,226l1,2-1,3-2-2-2,1l0,3-3-1-1-2l1-4l2,1l1-2l4,1ZM1386,210l1,4l2,2-1,4-4,2-7,1-4,6-3-2-2-4-7,1-4,2-5,0l6,4l0,9-2,2-3-2l0-5-4-1-3-4l4-1l0-3l4-3l1-4l8-1l5,1l0-9l4,2l4-5l1-2-1-6-4-6l0-3l4-1l6,7l3,4-1,5l2,6ZM1376,174l4,1l1-2l5,6-5,1-1,5-8-4l1,6-5,0-3-5-1-4l4,0-3-7-2-4l9,5l4,2ZM1070,128l3,0l8-4-1,1l7,4l14,12l1-2l7,3l5-2l2,1l4,3l3,1l3,2l4-1l4,4-2,3-3,0l2,5-1,3-9-2l1,9-1,1-8,2l7,9-2,1l1,3-2-1-3-1-6-1-7,0-2,0-6-2-2,1l0,3-7-1-3,0l0,3-2,1-4,3-1,4-2,0-1-3-6,0-2-4-2,0-1-5-6-4-7,1-5,0-5-4-4-2-7-4-1,0-10,3l5,18-2,1-3-4-4-2-4,1-2,2l0-1l0-2-1-2-5-2-3-4-2-2-1-1l4,0-1-4l4,0l3,0l0-5-2-3-4,1-3-2-5,3-3,1-2-1l0-3-4-3-3,0-4-3l1-4-1-1l2-6l4,3l0-3l6-6l7,0l9,4l5,2l4-3l6,0l6,3l1-2l5,1l0-3-7-3l3-2-2-2l4-1-4-3l1-2l13-2l2-1l8-2l3-2l7,1l4,5l3-1l6,2l1,2ZM978,381-4,6l0,19l3,4-4,2-1,2-1,1-1,3-2,2l0,4-2,1-7-5l0-3-16-10l0-4-1-2l1-2l2-4l2-3-2-6-1-3-2-3l3-3l3-4l2,1l0,3l2,2l3,0l6,4l1,0l1,0l1,0l3,1l2-2l4-2l2,1l3,0ZM1120,184l0,1-5,3-1,2-5,1-1,3-4-1-3,1-3,3l1,1-1,1-8,1-5-2-5,0l0-2l4,0l2-1l3,0l4-3-6-3-2,1-4-2l3-3-2,0l0-3l3,0l7,1l0-3l2-1l6,2l2,0l7,0l6,1l3,1l2,1ZM1271,328l1,4l0,6-7,4l2,3-4,1-4,2-4-1-2-3-3-5-1-6l2-5l6-1l4,1l4,2l2-3l4,1ZM1322,207l0-1l2,0l1-2l3,0l1-1l0-1l7,6l3,4l2,5l0,3-4,1-2,2-4,1-1-3-1-4-5-5l3-1-5-4ZM998,247l1,2l0,1l2,4-3,0-2-3-4,0l3-5l3,1ZM1271,328-4-1-2,3-4-2l1-2l0-4-4-5-1-5-4-4-4-1l0,2-3,0-2-1-4,4-1-5l1-5-3-1-1-3-2-1l0-2l4-4l0,2l3,0-2-6l2-1l4,4l2,5l6,0l2,4-2,2-1,1l5,4l5,6l3,4l4,4l2,3l0,5ZM943,230-1,0l0,1-2,0l1-5l2-3l2,0l1,2-2,2-1,3ZM750,362l0,1l0,3-1,2l1,2l2,0l2,2l0,2-1,1l0,4-1,0-5-2-4-4-4-3-3-3l1-2l1-2l2-2l2-3l1,0l1,0l2,3l0,2l0,1l2,0l1-2l1,0ZM898,239-1,3l1,2-1,3l1,4l1,19l1,18l0,11-5,0l0,2-18-10-18-10-4,3-3,2-3-3-7-2-2-3-3-3-2,1-2-3l0-2-3-4l2-2-1-3l1-3l0-2l0-4l0-3-2-4l2-1l1-3-1-2l3-2l1-1l2-2l1-4l5,2l2,0l3,0l6,3l2,4l4,1l6,2l5,3l2-1l2-3-1-4l1-2l3-3l3,0l6,1l2,2l1,0l2,1l4,1l1,1ZM1156,369-4,1-2-4-2-8l2-8l3,3l3,3l2,6l0,5-2,2ZM911,558-1,1-3-4l2-3l3-2l2-1l2,1l1,2-1,2-1,2-3,1-1,1ZM888,118l1,2-3,2-1,3-3,1-4,0-1-1-2-1-1-1l0-1-1-1-4-1-2-4l4-1l7,0l3-1l1,1l2,1l4,2ZM813,148-2,0l0-3l1,0l1,1l0,2ZM890,109l2,1l1,3l2,2-4,2-2,1-4-2-2-1-1-1-3,1-7,0-4,1l0-4l1-3l3-1l4,3l3,0l0-3l3-1l2,0l3,2l3,0ZM779,220l1,3l1,3l1,6l1,1-1,2-5,1-2,1-3,1l0,4-5,2-2,2-3,2-5,1-7,3l0,6-1,0l0,3-2,0-2,2-2,0-1-1-4,0-1,4-2,1-2,6-6,6-2,7-2,2l0,2-10,0-1,0l1-2l1-1l2-3l0-2l1-3l3-4l1,0l2-3l0-3l2-3l3-2l2-5l1-1l2-2l4,0l3-4l3-1l3-4-1-7l2-4l1-3l3-3l4-3l3-2l3-5l2-3l3,0l2,2l5,0l4,1l2,0ZM903,168-2-2l1-2-1-2-3-3-1-3-2-1-1-1l1,0l3-1l3,2l1,0l2,1l0,2l2,1l1,2l1,1l0,1l1,1-1,0-2,0-1-1-1,0l1,1-1,2-1,2ZM1014,471l1,6l1,3-1,2-1,2-1-3-1,1l1,4-1,2-1,1-1,5-2,6-3,7-3,9-3,8-2,6-4,1-4,2-2-1-4-2-1-3l0-4-1-5l0-3l1-4l2-1l0-2l3-3l0-4-1-2l0-3l0-5l2-3l0-3l3,0l2-1l2-1l2-1l3-2l3-4l2-2-1-2l2,0l3-3l0-3l2-3l1,3l1,2l1,3ZM359,268l2,0-2,4-2,4-1,7-1,2l0,3l1,3l1,3l2,4l1,3l1,3l5,1l1,2l4-1l4-1l3-1l3-1l3-2l2-3l1-4l1-1l3-2l5-1l4,0l2,0l1,1l0,2-3,3-2,4l1,0-1,3-1,4-1-2-1,0-1,0-2,4-1-1-1,1-4,0-4,0l0,3-2,0l1,2l2,1l0,1l1,0-1,2-5,0-3,4l1,1-1,1l0,2-5-6-2-1-3-2-3,1-4,2-2,0-3-1-3-1-4-3-4,0-4-3-4-2-1-2-2,0-4-1-2-3-4-3-2-3-1-3l2,0l0-1l1-2l0-2-1-2l0-2-1-3-3-5-4-4-1-3-3-2-1-1l1-3-2-2-2-2l0-4-2,0-2-3-1-2l0-2-1-4l0-4l0-2-2-2-2,1-2-2-1,2l0,3-1,4l1,2l2,3l0,1l1,1l0,2l1-1l0,4l1,1l0,2l2,2l1,5l1,3l0,2l0,3l2,0l1,2l2,2-1,1-2,2-1,0l0-3-3-3-2-2-2-2l1-3l0-3-2-2-3-2l0,1-1-2-3-1-1-3l2,0l2-2l1-2-3-4-2-1l0-4-1-3l0-4-1-5l5,0l6-1-1,1l6,3l9,3l8,0l4,0l0-2l8,0l1,2l2,2l2,2l0,3l1,3l1,1l4,2l3-4l4-1l3,3l1,3l1,3l2,3l0,4l0,2l4,2l2,1ZM884,189-1,1-2,0-2,1-2,1-2-1-1-3l0-1l1,0l0-1l2-1l1,0l2-1l2,0l2,2l0,3ZM808,303l0,12-2,3-1,4-4,0-6,1-1,2-3,0-3,0-1-1-3,1-4,2-1,1-3,3-1,1-2,1-2-1-1,2-1,3-3,4l0,2-2,2l1,3-2,1-1,1-1-3-1,1-1,0-1,1-3,0-2,0-2-1l1-2-1-1-1,1l0-2l1-1-2-2l0-2-1-1-1,0-1,1-2,1-1,1-2-1-1-1-1,0-1,0-1,0l0-1l0-2l0-2-2-1l0-3-1-4l2-1l1-3l1,0l3,2l3-1l2,0l0-1l18,0l1-4-1,0-2-23-1-22l6,0l15,11l15,12l1,2l3,1l2,1l0,4l5-1ZM1238,291-4,4l0,2-3,1-2,2-3,0-1,6-2,1l3,4l3,4l2,3-1,5-1,1l1,2l4,4l1,3l0,3l2,4-2,5-2,5-1-3l1-4-1-3-1-6-2-3-2-6-1-6-3-5-2,3-5,4-3-1-3-1l1-6-1-5-5-6l1-2-3-1-4-4-1-4l2,1-1-4l2-1l0-2l0-2l0-5l3,1l2-4-1-3l2-4-1-3l5-4l4,1-1-3l1-1-1-2l3,0l2,3l2,1l1,4l1,4-4,5l1,6l4-1l2,5l3,1l0,4l3,2l2,1l3-2l1,2ZM872,181l0,1-1,0-1-1-1,3l0,2-1-1-1-2-2-1l1,0l0-3l1-1l1-1l1,1l1,1l1,0l2,1-1,1ZM1196,145l3-1l5,0l4,0l5,3l4,2l4,0l5,1l3-1l5-1l3-4l3,1l3,2l5-1l0,4l1,5l2,2l2-1l4,1l2-2l4,2l6,3l1,2-4,0-5,0-2,2-1,3-6,2-2,3-5-1-2-1-1,3l3,2l1,2-2,2-1,3-4,1-6,0-6,2-4,3-2-2-5,0-8-3-4,0-5,0-10-1-4,0-4-3-4-4-2-1-7-3-6-1-5-1-2-2-1-6-5-4-7-2-4-2-3-4l4-1l5-4l5-2l4,1l4,0l4,3l4,0l7,1l2-3-4-3l1-5l6,2l4,0l5,1l3,4l7,2ZM933,538-3,0l0-3-1-2l0-2l1-5-1-4-1-7l4-6l2-4l1-3l0-2l0-4l1-3l0-7-2-1-2-1-1-1-2-1-4,0l0-2l0-4l13-4l3,3l1-1l2,1l0,3-1,2l0,4l3,3l2-4l2-1-1-7-1-3-2-2-1-6l2-5l1,0l6,2l1-1l3,0l2-2l2,0l5-2l4-3l1,3-1,5l1,4l0,8l0,3-1,4-2,3-3,3-4,2-6,3-5,5-2,1-3,4-2,1l0,4l1,4l1,3l0,1l1,0l0,5-1,2l1,1-1,2-2,2-4,2-5,3-2,2l0,2l1,0-1,3ZM767,273-6,0l1,22l2,23l1,0-1,4-18,0l0,1-2,0-3,1-3-2-1,0-1,3-2,1-2-3-3-4-3-1-2-2-3,0-2,1-2,0-2,2l0-3l1-3l1-5l0-5-1-2l1-3-2-2-2-2l1-2l18,0-1-8l1-2l4-1l0-13l15,1l0-8l16,12ZM945,471l2,2l1,3l1,7-2,1-2,4-3-3l0-4l1-2l0-3-2-1-1,1-3-3-2-1l2-5l1-2-1-4l1-4l1-1-1-5-2-2l5,1l0,1l0,1l2,3l0,6-2,3l2,4l0,2l0,2l0,2l1,1l1-2l1,2l1,0-1-3-1,0l0-1ZM1251,369l2,0l2,3l2,4l1,3-1,2l1,2l0,3l2,2l2,4l0,2-3,0-5-4-5-4-1-2-3-4l0-4-2-3l0-4-1-2l1-1l4,3l0,2l3,0l1-2ZM1323,380-4-1-5,0-1,6-2,2-2,7-4,1-4-1-2,0-3,3-3-1-3,2-3-3-1-4l4,2l3-1l1-4l2-1l5-1l3-5l2-3l3,3l1-2l2,0l0-3l0-3l3-3l2-4l2,0l3,2l0,3l3,1l4,2l0,2-3,0l0,2-3,2ZM892,491l4-1l3,1l1,1-2,1-2,0-3,2-1-2-7,2-4,0l0,19-5,0l0,15-1,19-4,2-2,1-3-1-2-1-1-2-1-1-2,2-4-4-1-3-1-5-1-4-1-8l0-6-1-3-1-2-3-4-2-7-1-3-3-5l0-4l2-1l2-1l3,1l3,2l1,0l18-1l3,3l11,1l8-3ZM854,284l1,8l2,1l0,2l2,2-1,2-1,10-1,7-5,5-2,7l2,2l0,3l3,0-1,2-1,1l0,1-1,0-3-5-1,0-4,2-3-1-2,0-2,0-2,0-3,2-2,1-6-3-2,1-2,0-2-2-4-2-5,1-1,1-1,3-1,2-1,5-3-3-2,0-1,1l0-3-5-2l0-2-3-3-1-3l1-2l3,0l1-2l6-1l4,0l1-4l2-3l0-12l6-2l13-10l15-10l7,2l3,3l3-2ZM852,337l2,2-1,1l0,2-4,4-1,3l0,3-1,1-1,4-3,2l0,2-1,2-1,3-3,1-2-2-2,0-3,3-1,0-2,5-1,4-5,2-2,0-2,1-3,0-3-4-1-3-3-4-4,0-4,0l1-8-1-3l1-3l2-2l2-3-1-2l1-2-1-3l0-1l1-5l1-2l1-3l1-1l5-1l4,2l2,2l2,0l2-1l6,3l2-1l3-2l2,0l2,0l2,0l3,1l4-2l1,0l3,5l1,0ZM415,324-1,1l0,1l0,2-1,2-1,2l0,2l0,1l0,3-1,0l0,2l0,2-1,1l0,1l1,1-1,1-2,0l0-1-2,0-1,0-3-1-1,0-1-1-2-2-1-2-2-2-2-2l1-1l1,1l1,0l1-2l1,0l0-2l1,0l1,0l1-2l1,1l1,0l1-1l1-1l0-1l1,0l1-1l0-1l1,1l1,0l1,0l1,0l1-1l1-1l2,0ZM890,54-5,2-3,0l1-3-5-2-4,2-1,3-3,2-4-1-4,0-4-2-2,1-2,0l0,3-6-1-1,3-3,0-2,3-3,5-4,6l1,2-1,1-3,0-2,5l1,6l2,2l0,6-3,3-2,3-2-3-7,5-5,1-5-2-2-5-1-11l3-3l9-4l7-5l5-6l7-8l6-4l8-5l7-2l5,0l4-3l6,0l6-1l11,3-4,1l4,3ZM861,20-6,2-5-1l2-1-3-1l6-1l2,1l4,1ZM840,13l10,3-7,2-1,2-2,1-1,3-4,0-6-2l2-1-5-1-6-4-2-2l7-2l2,2l4,0l1-2l4,0l4,1ZM860,10l6,1-3,2-8,0-9,0-1-1-4,0-3-2l8-1l4,1l3-1l7,1ZM1175,258l0,2l2,4-1,2-3,0-6-1-3-1-3-2-6-1-7-3-4-2-5-2l1-5l2-3l2-1l3,2l6,3l2,1l2,2l4,1l4,3l5,1l5,0ZM1027,315-2-4-4-8l13-5l2-11-2-3l0-2l1-2l0-2l2-1-1-1l0-4l2,0l2,4l3,2l3,1l3,0l2,3l2,2l1,1l0,1-1,3l0,1-2,2-2,4-2-1l0,2-1,2l1,4-2,0-3,2l0,3-1,1-3,0-2,1l0,2-2,1-2,0-3,2-2,0ZM1036,269-1-1l1-2l1,0-1,2l0,1ZM1121,219-3,4-4,1-7-1-2,2l3,5l2,3l4,3-3,3l1,3-3,6-2,5-3,5-6,0-4,5l4,2l1,4l3,3l1,4-10,0-2,4-4-2-1-3-4-4-8,1-7,0-7,1l1-6l6-3l0-2-3-1l0-5-5-2-2-3-3-3l8,3l4-1l3,1l1-1l3,0l5-2-1-4l2-3l4,0l0-2l3,0l2,0l1-1-1-4l1-3l3-1-3-3l4,0l1-2l0-2l1-2-1-3-2-2l2-2l5-1l4-1l2-1l3,0l3,2l3,4l7,2ZM439,356l0,1l1,3-1,1-2,0l0,2-2-1-1-3l2-1-2-1l0-1-2-2-2,1-1,1-2,2-1,0-1,1l2,3-1,0-1,1-2,0-1-3l0,1-2,0l0-2-2-1-1,0-2,0-1,1l0-1l0-1l1-1l0-1-1-1l0-2l2-1l2,2l0,1l1,1l1-1l1,1l2,0l2-1l3-1l2-2l2,0l0,1l2,0l2,1l2,2l1,1ZM472,423-4-1l0,1-4,1-5,4l0,2-1,2l0,3-3,1l1,2-2,1l2,5l3,3-1,2l3,0l2,3l4,0l4-3l0,8l2,1l2-1l5,8-1,2l0,3l0,5-1,2l1,2-1,2l2,4-2,6-1,2-2,2-5-3-1-2-9-5-9-6-3-3-3-5l1-1-4-7-5-9-5-10-2-3-2-4-3-3-4-2l2-2-3-5l2-4l3-3l1,2-2,1l1,2l1,0l2,0l2,3l3-2l1-4l2-4l6-2l4-6l2-3-1-4l1,0l3,2l2,3l2,1l3,5l3,1l3-1l1,1l3-1l4,2-3,6l1,0l2,3ZM1360,358l1,4l1,3-2,4-2-5-2,3l2,3-1,3-6-3-1-4l1-2-3-3-1,2-2,0-3,3-1-2l1-4l3-1l2-2l2,2l3-1l1-3l3,0-1-4l4,3l1,2l0,2ZM1348,348-2,1-1,4-1,1-3-3l1-2l1-1l0-3l2-1l0,4l3-5l0,5ZM1324,353-5,4l2-3l3-3l2-4l2-5l1,4-3,3-2,4ZM1338,340l3,2l3,0l0,2-2,2-2,2-1-3l0-2-1-3ZM1354,338l1,6-3-2l0,2l2,3-3,1l0-3-1,0-1-4l2,1l0-2-3-4l4,0l2,2ZM1336,334-1,5-2-3-3-4l4,0l2,2ZM1330,306l3,2l1-1l1,1-1,2l3,4-1,4-2,2l0,4l1,4l3,0l2,0l6,3-1,2l2,2l0,2-4-2-2-3-1,2-3-3-4,0-2-1l0-2l1-1-2-1l0,2-3-3-1-3-1-5l2,2l0-8l0-5l3,0ZM1494,436-1,1-2-2-1-3-1-4l1-1l0,2l1,1l2,3l2,2-1,1ZM1477,429-2,0-1,1-2,2-3,1-2,0-4-2-2-1l0-2l4,1l3,0l0-3l1,0l0,3l3,0l1-2l3-2l0-3l2,0l1,1l0,2-2,4ZM1426,448l2-16l0-17l8,3l8,3l3,3l3,2l0,4l8,3l0,2-4,1l1,3l4,4l2,5l3,0-1,2l4,1-2,1l5,2-1,2-3,0-1-1-4-1-4,0-3-4-3-3-2-4-5-2-4,1-3,2l0,4-4,1-2-1-5,0ZM1482,424-2,1l0-3-1-2-2-2-3-2-3-1l1-2l3,2l1,1l2,1l2,2l2,2l0,3ZM863,123l5,0l7,0l2,1l1,1l0,3l2,1l0,2-2,1l1,3l1,2l2,4l0,2-2,0-3,4l1,2-1,0-4-2-2,1-2-1-2,2-3-2-1,0-2-2-3-1-1-1-3-1l0,2-2-1l0-2-3,0-2-2-2-3l0-2-1-2-2-2l1-1-1-3l3-1l5-3l5-1l4,1l0,1l4,0ZM1328,183l1,1-1-1-1,2l0,2l2,4-2,1l0,1-1,1-2,1-1,1l1,3l2,1l3,2l0,1-1,1-3,0-1,2-2,0l0,1-2-1l0,1-1,0-1-1-1,0-2-1l0-2l1-1-1-1l0-3-1-1-3,0-2-2l1-3l4-3l0-3l3,1l4,1-2-3l5-2l0-3l4,3ZM530,505l2,3l0,7l5,1l1-1l4,1l0,2l1,5l1,1l2,1l1-1l2,1l0,3l0,3-1,3l0,4-3,4-4,1-5-1-4-1l3-8-1-2-5-2-5-4-4-1-9-8l1-6l0-3l2-5l7-1l4,0l5,3l0,1ZM942,235l0,3-1,2-2,0l1-1l1-1-2,0l1-4l2,1ZM1016,274-1,0-2-1l0-3l1-3l1-1l1,2l1,3-1,3ZM895,154l1,1l2,1l1,3l3,3l1,2-1,2l2,2l1,1l2-1l2,1l1,2-2,1-2-1l0,6-2,0-4-2-4,1-2,1-6,0-3-1-2,1-1-2-1-1l1-1-1-1-2,1-2-1-1-2-2-1-1-2-2-2l3-1l2-3l1-4l3-1l1-1l3,1l2,0l2,1l2-1l3,0l0-2l2,0ZM927,407l2,3l0,3-2,1-2,0-2,2-2,0l0-3l1,0l0-3l1-2l1,1l3-2ZM751,259l0,1l0,1l0,8-15-1l0,13-4,1-1,2l1,8-18,0-1,2l0-3l1,0l10,0l0-2l2-2l2-7l6-6l2-6l2-1l1-4l4,0l1,1l2,0l2-2l2,0l0-3l1,0ZM992,252l4,0l2,3l3,0l2,4l2,1l1,2l4,2l0,2l0,2l0,2l2,1l1,2l0,1l2,1l1,0l1,2l0,1l3,5l13,3l1-1l2,3-2,11-13,5-13,2-4,2-2,6-2,0-2-1-1,0-5-1-1,0-5,0-1,0-2-1-1,3l1,2-2,2-1-3-1-1-1-2-2-2-3-4-1-5-4-3-2-1-3-5-1-3l0-3-3-6-2-2-2-1-2-3l0-1-1-3-2-1-2-4-3-4-2-4-2,0l0-2l0-2l1-2l5,1l1-2l1-2l3-1l1-1l1-1-5-5l9-3l0-1l6,2l7,3l13,11l8,0ZM952,327-1,5-1,5-3,2-2,4l0,2-2,2-2,5l0,1l0-3-1-2-2-2-1-3l1-4-2,0-1,1-2,0l1,1l0,4-2,2-2,4-3,1-4-3-1,1-1,1-2,1l0,1-5,0l0-1-3,0-2,1-1-1-3-3l0-1-4,1-1,2-1,5-2,1-1,0-2-2l0-1l0-2l0-2-2-4-1-2l0-1-1-2-1-3-1-2-1,1l0-2l1-2l0-2l1-2-1-1l1-3l2-4l4,0-1-20l0-2l5,0l0-11l18,0l17,0l18,0l1,6l0,6l2,6l2,1l3,2-2,3-4,1-1,1l0,4-2,7l1,2ZM942,352l1,4-1,1-2,1-2,2l3,1l2,2l1,2l2,2l3,5-3,4-3,3-3,2-3,0-3,1-3-1-2,1-4-3-1-2-3,1-2,0-1,0-2,0-3-4-1-2-3-2-1-3-2-2-3-3l0-2-3-2-3-2l1,0l2-1l1-5l1-2l4-1l0,1l3,3l1,1l2-1l3,0l0,1l5,0l0-1l2-1l1-1l1-1l4,3l3-1l2-4l2-2l0-4-1-1l2,0l1-1l2,0-1,4l1,3l2,2l1,2l0,3ZM734,326l1,4l0,3l2,1l0,2l0,2-3-1l0,1-1,0-3-1-3,0-8,0-1,0-2,0-2,1-1-4l4,0l1-1l1,0l2-1l2,1l2,0l2-1-1-1-2,0-1,0-2-1-1,0-1,2-5,0-2-4-2-2l2-1l2-4l1-2l2-2l2,0l2-1l3,0l2,2l3,1l3,4l2,3ZM742,358-2,3-2,2-1,2-1,2-1-1-3-2-3-3l0-1-1-4l3-3l0-1l1-1l1,0l1-1l4,0l1,2l1,2l0,1l1,2l0,2l1-1ZM394,332-1,1-2,0-2-1-2-1-2,0-1-1l0-1l2-1l1-1-1,0l2-1l1,1l1,1l1,1l2,0l1,0l1,1-1,2ZM881,174-1,1l0,2l3,2-2,1l0,2l0,1-2,0-2,1l0-1l1-2-1,0-1,0l0-1-1-1-1,0l0-1-1,1-1,1-1,1l1-1-2-1-1,0-1-1-1-1l1,0l0-2-2-2l1-3-2,0l2-1-2-2-1-2l3-1l3,0l2,2l1,2l2,1l1,2l2,1l2-1l1,1-1,1l1,1ZM544,371-3,4l1,4l1,3-1,2l0,2-1,3-3-2-2,1-2,0l0,1l1,1-1,1-2,0-3-5-1-3-1,0-2-3l1-3l0-1l3-2l0-4l6,1l0-1l4-1l5,2ZM878,150l0,2-1,2-1,0-4-2-2,1l0,1-2,1-1-1-1,1-2,0l0,1-4,1-1-1-2-1-1-2l1-1l2,0l1-1l1-1l0-1l1,0l0-1l2,0l1,0l3,2l2-2l2,1l2-1l4,2ZM855,163-3,1-1,2-1,1l0,1-1,0-2,0-3,0l1,0-2-2l1-3l3,1l2-2l4,0l0-1l1,0l1,2ZM870,69-6,1-3,3l1,3-5,3-6,4-2,7l3,3l4,3-3,5-3,1-1,8-1,5-5-1-2,4-4,0-2-4-3-6-4-6l2-3l3-3l0-6-2-2-1-6l2-5l3,0l1-1-1-2l4-6l3-5l2-3l3,0l1-3l6,1l0-3l2,0l5,2l6,3l1,7l2,2ZM929,534l1,2l0,3-1,2-3,1-2-3l0-2l1-2l1-1l1-1l2,1ZM956,230-8,6-5-3l1,0-1-2l1-3l2-2-1-2-2,0-1-4l1-3l1-1l1-1l0-3l1,1l5-1l2,1l4,0l4-2l3,0l4-1-1,3-2,2l1,3-1,7-9,5ZM895,300l1,20-4,0-2,4-1,3l1,1-1,2l0,2-1,2l0,2l1-1l1,2l1,3l1,2l0,1-3,1-2,2-3,6-4,2-5,0-1,0l1,2-3,2-2,2-5,2-1-1-1,0-1,1-4,0l1-1-2-4l0-2-2-1-3-3l1-2l2,0l1,0l3,0-3-4l1-4-1-3-2-4l1-2-3,0l0-3-2-2l2-7l5-5l1-7l1-10l1-2-2-2l0-2-2-1-1-8l4-3l18,10l18,10ZM793,344l0,3l1,1l2,2l0,3l1,1-1,11l2,4-4,1-1-2-1-3-1-3l1-4-1-2l0-4l0-4-2-3l0-1l4,0ZM1262,328-4-1-6,1-2,5l1,6-4-3-4,1l0-4-3,0l0,5-2,8-1,4l0,4l3,0l2,5l2,4l2,3l3,1l2,3-1,2-3,0l0-2-4-3-1,1-2-2-1-2-2-3-3-3l0,3-1-2l0-4l1-5l2-5l2-5-2-4l0-3-1-3-4-4-1-2l1-1l1-5-2-3-3-4-3-4l2-1l1-6l3,0l2-2l3-1l2,1l1,3l3,1-1,5l1,5l4-4l2,1l3,0l0-2l4,1l4,4l1,5l4,5l0,4-1,2ZM1085,194-2,1-4,0l0,2l5,0l5,2l8-1l2,5l2-1l3,1l0,2l1,3-4,0-3,0-2,2-2,1-1,1-2-2-1-4-1,0l0-2-3-1-1,2l0,2-3,0-1,3-1-1-3,1-2,0l2-5-2-4-4-2l1-2l3,0l1-2l1-4l5-1l0,3l1,1l2,0ZM1070,209-2-1-2-1l0,2-4,1l1,4-2,2-4,0l0,3-3,0-5-2-1-4-3,0-6-5-4,0-5-3-3,0-2,1-3-1-2,3-3,1-2-3l0-6-4-1l0-4-3,0l0-4l5,1l3-2-4-3-2-3-3,2l1,3-3-3l2-2l4-1l4,2l3,4l2-1l5,0-1-2l3-2l3-3l6,3l1,4l2,1l5,0l1,1l4,5l5,3l4,3l5,2l6,2l1,4ZM1354,449l0-2l0-1l0-1l4-1l4,0l1-1l2,1-2,1-5,2-4,2ZM838,231-1,4-2,2-1,1-3,2l1,2-1,3-2,1-2-9-2-3-1-1-3-3-1-4l3-3l1-4-1-5l1-2l4-2l3,0l0,3l4-2l0,1-2,2l0,3l2,1-1,5-2,2l1,3l2,0l1,2l2,1ZM961,188l5,0l4,3l1,1l0,3l4,1l2,2-3,1l2,6l0,1l3,5-2,0-2-1-5-1-2,1-4,1-3,0-4,2-4,0-2-1-5,1-1-1l0,3-1,1-1,1-2-2l2-2-3,1-4-2-2,3-7,1-3-3-5,0-1,2-3,1-4-3-5,0-3-5-3-3l2-4-3-2l4-5l6,0l2-4l8,1l4-4l5-1l6,0l8,3l7,2l4-1l4,1l4-3ZM897,191l0-1l1-3-2-1l4-2l4,1l1,2l3,1l0,2-5,0-2,2-3,2-1-2l0-1ZM1326,284-1,5-3-5-1-4l1-5l3-3l2,1l0,3-1,8ZM933,406-1,3l0,3l1,2l2-1l2,0l1,1l3-2-2-1l1-3l3-2l16,10l0,3l7,5-3,7l1,3l3,2l0,1-2,3l1,2-1,2l2,3l1,5l2,1-4,3-5,2-2,0-2,2-3,0-1,1-6-2-1,0-2-2l0-5-2-3-1,1l0-1-5-1-2-2-3-1-2,0l0-1-2-5-1-3-3-3l1-2-1-2l0-3-1,0l0-3l1,0l2-2l1-2l1-1l0-2l0-1-1-2l2-1l0-3-2-3l2,0l5,0ZM943,379l2,3l1,3l2,6-2,3-2,4-1,2-3-1-2,1-3,1-2,3l1,2-5,0-2,0-3,2-1-1l0-4l1-2l1-4l1-2l1-3l2-1l1-2-1-1l0-6l2-1l3,1l3-1l3,0l3-2ZM925,139l2,2l0,1l5,2l3-1l3,2l2,0l6,2l1,1-1,3l1,2l0,2-4,0-2,2l0,2-3,0-2,2-4,0-3,2l1,3l2,2l4-1l0,2-5,1-5,3-2-1l0-2-4-2l0-1l4-2-1-1-7-1-1-2-3,1-1,3-3,3-2-1-2,1-1-1l1-2l1-2-1-1l1,0l1,1l2,0l1,0-1-1l0-1-1-1-1-2-2-1l0-2-2-1-1,0-3-2-3,1-1,0-2,0l0,2-3,0-2,1-2-1-2,0-3-1-1,1-1-1-2-1l1-2l0-2l1,0-1-2l3-4l2,0l0-2-2-4l1,0l2-2l3,0l4,1l5,1l3,0l2,1l1-1l1,1l4,0l1,0l0-2l1-1l3-1l2,0l1-1l1,1l4-1l3,3-1,1l1,1l3,1ZM559,574-2,3-4,3-3-1-2,0-5-2-3,0-3-2l0-4l1-1-1-5l0-5l0-4l3-1l5,4l2,0l5,3l3,3l4,4-2,2l2,3ZM1082,184l2,0-3,3l4,2l2-1l6,3-4,3-3,0-2,0-1-1l0-3-5,1-1,4-1,2-3,0-1,2l4,2l2,4-2,5-3-1-2,0-1-4-6-2-5-2-4-3-5-3-4-5-1-1-5,0-2-1-1-4-6-3-3,3-3,2l1,2-5,0-5-18l10-3l1,0l7,4l4,2l5,4l5,0l7-1l6,4l1,5l2,0l2,4l6,0l1,3l2,0l1-4l4-3l2-1ZM518,358-4,4l0,1l1,2-1,1-3,1l0,2-1,2l3,4l1,1-2,2-5,2-4,1-1,1-3-1-4-1-1,1l2,1l0,3l1,4l4,0l0,1-4,2l0,2-2,1-3,1-1,1-4,1-2-3-2-5-1-2-1-1l2-3l0-1-1-1-1-4l0-3l1-2l1-3-1-1-3,1-3,0-2,0-3-4-3-1-6,1-1-2-1-1l0-1l1-2l0-2-1-1-1-2-2-1l1-3l1-3l1-2l2-2l2-2l3-1-1,1-2,1l1,2l0,3-2,3l1,4l2,0l1-4-1-2l0-4l6-2-1-2l2-2l1,4l3,0l3,3l0,1l4,0l5,0l3,2l3,1l3-2l0-1l5-1l6,0-4,2l1,2l4,1l3,2l1,4l2,0l2,1ZM1269,290-5,4-3,5l0,4l4,5l5,7l5,3l3,4l3,9l0,10-3,3-5,3-3,4-6,5-1-3l1-4-4-2l4-2l4-1-2-3l7-4l0-6-1-4l0-5-2-3-4-4-3-4-5-6-5-4l1-1l2-2-2-4-6,0-2-5-4-4l2-1l4,0l4-1l4-2l2,1l4,1l0,3l2,2l5,2ZM1027,315-3,1-1,3l0,1-4,3-7,2-4,4-2,0-1,0-3,2-3,1-3,0-2,0l0,2-2,0l0,1-3,0-1,1-3,0-1-3l0-3-1-2-1-4-2-2l1,0l0-2l0-1l0-2l2-2-1-2l1-3l2,1l1,0l5,0l1,0l5,1l1,0l2,1l2,0l2-6l4-2l13-2l4,8l2,4ZM929,445l0,1l2,0l3,1l2,2l2,2l1,5-1,1-1,4l1,4-1,2-2,5l2,1-13,4l0,4-3,1-3,2-1,2-1,0-4,4-3,4-2,0-1-1-5,0-1-1-1-1-3-1-4,1-3-3-3-4l1-16l9,0l0-2l1-2-1-2l0-3l0-1l1,0l1,1l2,0l3,1l1,2l4,1l3-2l0,3l4,0l2,3l1,3l4,0l0-6-2,1-3-2-1-1l1-5l1-6-1-2l1-4l1,0l6-1l1,0l0,1l1,1l1,1l1-1l0-1ZM927,515-3-1-1,1-2-1-2,0-3-2-3-1-2-3l0-2-1-1-5-5-2-3l0-1-2-4l5,0l1,1l2,0l3-4l4-4l1,0l1-2l3-2l3-1l0,2l4,0l2,1l1,1l2,1l2,1l0,7-1,3l0,4l0,2-1,3-2,4-4,6ZM977,410-3-4l0-19l4-6l1-1l3,0l4-4l6,0l12-16-4,0-15-6-1-2-2-2-2-3l1-2l2-2l1,1l1,2l2,2l2,0l5-2l5,0l3-2l3,0l1-1l3,0l1,0l2-1l3-1l2-1l1,0l1,1-1,3l0,3l0,2-2,5-1,6-3,6-4,8-4,6-5,7-4,4-7,5-4,4-5,6-1,3-1,1ZM878,184-1,0-2,1l0,1-1,0l0-2-1-1-1-1l0-1l1-1l1-1l1-1l0,1l1,0l1,1l0,1l1,0l1,0-1,2l0,1ZM927,515l1,7l1,4-1,5l0,2-2-1-1,1-1,1-1,2l0,2l2,3l3-1l1-2l3,0-1,4-1,4-1,2-3,3-1,0-2,3-2,3-3,3-5,6-3,3-4,2-4,2-3,0l0,2-3-1-2,1-5-1-2,1-2-1-5,2-3,1-3,2-2,0-2-2-1,0-2-2l0,1-1-2l1-3-2-3l2-1l0-4-3-5-2-4-2-7l2-2l1,1l1,2l2,1l3,1l2-1l4-2l1-19l1,0l2,5l0,3l1,2l3,0l2-3l2-1l2-3l2-1l2,1l2,1l3,1l3-2l1-1l1-3l2,0l2-2l1-3l4-4l7-4l2,0l2,1l1-1l3,1ZM930,515l0-4l0,8-5,1-3,5-3,3-4,3-4,1-4,0-3,0-1-1ZM-3647,3854-1-1-2,2l0,2-4,15-2-1-1,2l1,2-1,2-4,2-5,4-4,2-1,2-3,0-5,2-4,4-6,5-5,2-3,1-4,0-1-1-4-1l0-2l6-3l9-5l3-1l5-2l5-3l5-2l5-4l2-1l3-3l5-3-1,3ZM1532,587l0,6l2-4l1,1-2,4l3,2l2,0l4-2l2,1-4,5-4,3-3-1-2,2-1,2-2,1-3,3-5,3-5,2l1-1-2-1l6-4l1-3-3-2l1-2l4-1l4-4l2-4l0-3l1-1-1-2-1-5l1-3l1-1l1,3l3,2-2,4ZM524,670l5,11l4,0l2,0l0,2-3,2-2,0-2-1-3-1-5-1-6-3-5-2-8-6l4,1l7,4l6,1l1-2-1-3l3-2l3,0ZM491,518l0,2-1,5-4,2l1,9-1,2l2,2-3,3-2,5l0,4l1,5-2,6l4,8l1,1l2,5-2,5l1,4-2,4l1,4l3,5-2,2l0,5l1,5l2,6-1,1l3,6l2,2l0,2l2,1l1,2-1,1l1,3l1,7l0,4l1,3l0,3-2,2l2,5l2,2l3,0l1,3l3,3l10,1l4,1-4,0-1,1-3,2l2,4-2,0-5-1-6-4-6-3-3-3l0-3-3-3-4-8l0-5l2-4-6-2l2-4-2-8l5,1-1-10-3-1l1,6-3-1-1-7-2-9l1-4-3-5-2-6l2,0l1-8l0-8l1-8-3-8l0-4-1-6l1-7-1-9l0-11l1-12-2-8-1-7l2-2l1-2l2,3l1,4l3,2-1,5l3,6l2,7l4-1ZM813,141-2-2-3-2-3,1-3,0l2-1l3-8l5-2l4,0l0,2l0,5-1,1-3,0l1,6ZM757,210-2,1-2,0-3,0l1-4l0-3-2-1-1-1l0-4l2-2l1-2l1-3l0-2-1-2l0-2l1-1l2-1l1,3l2,0l1-1l3,0l1,3-2,1-1,4l0,1l0,3-2,0l1,3-1,3l1,2l0,1-2,2l1,2ZM1351,141l11,9-8-2l3,7l8,5l2,4-5-3l0,4-3-4-3-5-5-6-2-3-5-7-6-5-6-7l2-2-4-2l1-1l4,3l6,5l4,5l6,5ZM875,124-7,0-5,0l0-2l6-2l4,1l1,1l0,1l1,1ZM1238,38-5,0-7-1-1,0l1-2l3,0l7,2l2,1ZM1248,30-1,2-6-1-8-1-1-2l6,1l10,1ZM1228,29l3,3-12,0-3,1-10-3-3-2l3-1l8,0l14,2ZM975,49-2,0-11,0-1-2-7-1-1-2l3-1-2-3l5-3-4-1l6-3-2-2l5-2l8-3l10,0l4-2l5,0l3,1-1,1-9,2-8,2-7,4-2,4-2,4l2,4l8,3ZM1329,184-1-1-1-3l2,0-3-6-4-4l2-2l6,1-1-5-2-5l0-2-1-5-5,2-2,2-7,0-4-5-8-4-8-1-4-5-4-3-3-2-6-5-5-2-7-1-5,0-4,1-1,2l3,1l2,3-1,2l0,5l1,2-3,3-6-2-5,1-3-2-3-1-3,4-5,1-3,1-5-1-4,0-4-2-5-3-4,0-5,0-3,1-7-2-3-4-5-1-4,0-6-2-1,5l4,3-2,3-7-1-4,0-4-3-4,0-4-1-5,2-5,4-4,1-1,1-4-4-4,1-3-2-3-1-4-3-2-1-5,2-7-3-1,2-14-12-7-4l1-1-8,4-3,0-1-2-6-2-3,1-4-5-7-1-3,2-8,2-2,1-13,2-1,2l4,3-4,1l2,2-3,2l7,3l0,3-5-1-1,2-6-3-6,0-4,3-5-2-9-4-7,0-6,6l0,3-4-3-2,6l1,1-1,4l4,3l3,0l4,3l0,3l2,1-1,3-4,0-3,6l5,5l0,3l6,6-2,2l0,1-2,0-4-3-1,0-3-2-1-2-4-1-3,1-1-1-6-2-6-1-4-1l0,1-6-5-5-2-4-3l3,0l2-5-2-2l5-2l0-1-4,1l0-2l2-2l4,0l0-2-1-2l1-3-1-1-6-2-2,0-3-2-3,1-5-2l0-1-2-2-3-1-1-1l1-1-3-3-4,1-1-1-1,1-2,0-1-3-1-2l3,0l2-1-2-1-3-1l0-1-1-1-3-3l0-1-1-3-3-1-2,1-1-1-4-2-2-2-1-3-2-1l2-1-2-5l2-3-1,0l4-3-5-2l7-6l2-3l1-2-6-3l1-3-4-4l1-4-5-5l2-3-5-3-1-3l3,0l5-2l3-2l6,3l9,1l15,5l3,2l1,3-3,2-5,2-16-4-3,1l7,3l1,2l1,5l5,1l3,1l0-2-3-2l2-2l9,3l3-1-4-3l7-4l3,0l4,1l1-3-4-2l1-3-4-3l10,2l3,2-4,1l1,2l3,2l5-1-1-3l7-2l10-4l2,0-2,3l4,0l2-1l6,0l4-2l5,3l3-3-5-3l1-1l10,1l5,1l15,5l1-2-4-2-1-1-4-1-1-2-3-3-1-1l3-4l0-4l2-1l9,1l2,3-1,3l3,1l3,3l3,6l6,3l0,3-3,6l5,1l0-2l3-1l0-2l1-2-3-3-1-3-4,0-2-2l0-5-7-3l4-3-3-3l2,0l3,2l2,4l4,1-4-3l4-2l6,0l8,3-5-4-4-4l4-1l8,0l6,0-4-2l1-3l3,0l4-2l8-1-1-1l8,0l3,1l5-2l5,0-1-2l1-2l5-1l6,1-3,1l8,1l3,1l2-1l9,1l9,1l4,2l2,2-2,1-5,2-1,2l5,0l5,1l2-1l5,3l0-1l4-1l11,1l3,2l14,1-4-4l8,1l5,0l8,2l4,3l1,2l8,3l7,2-2-5l7,2l4-1l8,1l1-1l6,1-8-4l2-2l32,3l7,2l13,3l12,0l7,0l5,2l4,3l6,1l3,0l6,0l7,0l6,0l11,4l2-2-6-2-2-2l12,1l7,0l12,2l8,2l27,17-2,2-5,0l7,2l7,4l3,1l3,2l1,1-8-1-5,4-3,0-1,4-2,3l2,2-9-4-5,4-4-2-1,2-6,0l3,3l1,5l2,1l5,1l8,7-4,1l3,4l4,2-4,2l4,6-4,1l3,5-1,5-5-4-8-7-13-11-5-6l0-3-2-3l4-1l0-6l1-4l2-4-6-7-4,1l3,4-3,5-10-6-7,1l0,8l6,3-7,1-5,1-3-3-7-1-2,2-12-1-10,2-3,9-4,11l7,1l4,3l5,1l0-2l5,0l10,5l4,5l1,5l4,5l4,8l0,8l1,3-2,6-2,6l0,3-4,3-3,0-4-3-3,4l0,2ZM1093,18-15,2-1-5l2,0l2,0l10,2l2,1ZM931,10-4,1-2,0l0,1-3,0-3,0l0-2-6,0l5,0l4,0l2,1l1-1l2-1l5,1-1,0ZM1076,16-6,1-9-1-6-2-6-2-4-1l4-2l5-1l8,2l10,3l4,3ZM781,178l2,2l7,2l2-1l5,2l4,0l1,2-4,4-6,1l0,2-2,2-2,5l2,3-3,2-1,3-3,1-3,4-5,0-4,0-3,2-2,2-2-1-1-1-2-3-3-1-1-2l2-2l0-1-1-2l1-3-1-3l2,0l0-3l0-1l1-4l2-1-1-3-3,0-1,1-2,0-1-3-2,1-1,1l0-3-2-2l6-4l5,1l6,0l4,1l4-1l6,1ZM828,185-2,4-2-1-1-3l1-2l3-2l1,4ZM811,148l2,0l1,2l6,1-2,3l0,4-1,0-2,0l0,1-3,3l0,2l2,0l2,2l0,1l1,2-2,2l2,3l2,1l0,2-4,3-8-1-6,1-1,4-4,0-5-2-2,1-7-2-2-2l2-3l1-10-4-6-3-2-6-2l0-4l5-1l7,1-2-5l4,2l9-4l2-4l3-1l1,2l1,0l2,2l3,2l2,0l4,2ZM95,303-1,1-1,0l1-2-1-2l1,0l1-1l0-1l0-1l2,1l1,1l1,2l0,1-2,1-2,0ZM94,295-1,1-1-1l0-1l1,0l1,0l1,1-1,0ZM92,292-3,0l1-1l2,1ZM88,291-2,0l0-1l1-1l1,2ZM81,288-1,0-1-1l1-1l1,0l0,2ZM431,155-5,1-4,2-4,2l0,1l4-1l2,2l4-1l4-2l4-2-2,3l2,0l2,2l4-1l4,0l0,1l1,0l1,1l1,2-3,0-1,0-2,0-4,0-3,1-4,3-2,2l0,1l5-4-4,4-2,4-2,3l0,2-1,1-1,2l0,2l1,1l1,0l1-1l2-1l2-2l2-3l0-3l1-3l2-2l1-2l3-1-1,2l2-3l1,0l1-2l3,1l3,2-1,2-1,2-3,2-1,2l1,0l4-3l1,1l0,3-1,2-3,3-2,2-2,1l2,1l2,1l4-1l3-1l2-1l4-1l4-3l0-1l1-1l2-1l3,0l3,1l4-2l0-2l0-1l6-3l2-1l6,0l7,0l1-2l2,0l2-1l2-2l2-4l5-4l1,2l3-1l1,1-2,7l1,3l1,2-6,2-4,2-5,1-3,3-1,2-1,2l0,3l2,0l0-2l1,1-1,2-3,1-2-1-3,1-2,1-3,0-4,1l7-1l1,1-7,2-2,0l0-1-2,2l2,0-2,4-5,4l0-2-1-1l0,2l0,1l0,2-2,2-4,4l2-3-1-2l1-5-2,3l0,3-3-1l3,2-1,5l1,0l0,2-1,5-4,4-5,1-3,3-2,1-3,1-1,2-6,3-3,3-2,3-2,4l0,3l1,5l1,3-1,2l1,6l0,4-1,2-2,3-1,1-2-1l0-2-2-1-1-5-2-4l0-2l2-3-1-3-3-4-1-1-5,2-1,0-1-2-3-2-5,1-3-1-4,1-2,1l1,1-1,2l1,1-1,1-2-1-2,1-3,0-2-3-4,1-3-2-3,1-4,1-5,4-5,2-3,2-1,3-1,3l0,3l0,2-2,0-2-1-4-2l0-2l0-4-2-3-1-3-1-3-3-3-4,1-3,4-4-2-1-1-1-3l0-3-2-2-2-2-1-2-8,0l0,2-4,0-8,0-9-3-6-3l1-1-6,1-5,0l1-2-2-3-2-1l0-1-2-1-1-1-4,0-1-1l1-3-2-5l0-7l0-2-1-1-1-5l2-4-1-3l3-4l2-4l1-4l5-5l3-4l3-5l3-7l2-4l0-2l1-1l5,1-1,5l2-1l2-4l1-4l11,0l12,0l4,0l12,0l12,0l12,0l12,0l13,0l14,0l8,0l1-2l1,0l0,2l0,1l3,1l4,0l3,2l3-1l5,2ZM220,110-6,2l0-2l2-2l5-1l3-1l2,0l0,2-6,2ZM188,97-3,0-2-1l0-1l4-1l3,1-2,2ZM189,79l1,0l3,0l1,1l2,1-1,0-3,1-2-1-3,0-1-1l3-1ZM328,53-20,17-28,26l3,0l2,1l1,2l0,3l6-2l5-2l0,3l1,2l1,2-1,3-1,6l3,3-2,3-4,2-1-2-2-1l3-5-1-3l2-5-3,0-6,0-3-2-3-5-2-1-5-1-5,0-5-2-2-2-5,1-3,3-3,1-5,1-5,1-5,1l3-3l6-4l6-2l0-1-7,3-6,3-9,3l0,3-7,3-6,2-6,1-3,3-8,2-4,2-7,2-2,0-5,1-5,2-5,2-8,1l0-1l7-2l5-2l7-2l5-1l4-2l8-3l2-1l5-1l4-4l5-3-5,2-1-1-4,2l1-3-3,2l1-2-6,1-2,0l3-2l3-2-1-2-5,1-1-2-1-1l3-3l0-2l5-2l6-3l4-2l3-1l2,1l5-2l2,0l5-1l2-2-1-1l5-2-2,0-5,1-3,1-1-1-6,1-3-1l1-2-1-3l7-2l11-2l3,0-4,2l7,0l1-3-1-1l0-3l0-1-3-2l5-2l6,0l7-2l4-2l6-2l4-1l9-2l3,1l8-3l4,1-1,2l3-1l5,1-2,1l4,0l4,0l5,1l6,1l2,0l5-1l3,2l3,0ZM541,389l1-3l0-2l1-2-1-3-1-4l3-4l1,0l4,2l4,4l1,2-3,5-1,4-2,2-2,0-1-2-1,0-1,2-2-1ZM474,337l0-1l0,1ZM507,307l1,0-1,0ZM22,474-1,0l1,0ZM27,474l0-1l0,1ZM512,313-1,0l0-1l1,1ZM512,310-1,0l1,0ZM1011,266l1,0l0,1l0,1-1-1l0-1ZM464,292l0,1-1,0-1,0-1,0l1-1l1,0l0-1l0,1l1,0l0-1l1,0-1,1ZM464,291l1,0-1,0ZM464,286l1,0l0,1-1,0-1,0l0-1l1,0ZM461,284l0,1-1,0l0,1-1,0l0-1l1,0l0-1l1,0ZM460,284l1,0-1,0-1-1l1,0l0,1ZM452,279l1,1-1,0l0-1ZM455,279l0,1l0,1l1,1l0,1l0-1-1,0l0-1l0-1l0-1ZM458,279ZM451,278-1,0l1,0ZM459,277-1,0l1,0l0-1l0,1ZM445,276-1,0l1,0ZM445,277l1,0l0-1l0,1l0,1l0,1-1-1l1,0-1,0l0-1l0-1l1,0-1,0l0,1ZM456,277-1,1l0-1l1,0-1,0l0-1l0-1-1,0l1,0l0,1l1,0l0,1ZM447,272-1,0l1,0ZM444,272l1,0l0,1l0,1l1,1l0,1-1,0-1,0l0,1l0-1-1,0l0-1l1,0-1,0l0-1l1,0l0-1l0-1ZM450,270l0,1l1,0l1,1l0,1l0,1l0,1-1-1l1,0l0-1l0-1-1,0l0-1-1,0l0-1ZM443,264l1,0l1,0l1,0l0,1-1,0-1,0-1,0-1,0-1,0l1,0l1-1-1,0l1,0ZM447,263l1,0l1,1l0,1l1,0l0,1l0,1-1,0l0,1-1,0l1,0l0-1l0-1l1,0l0-1-1,0l0-1-1,0l0-1l0,1l0-1-1,0ZM508,309l0-1l0,1ZM509,235-1,1l0-1l1,0ZM521,334l0-1l0,1l1,0-1,0ZM986,465-1,0l0-1l1,1ZM989,463l0,1-1,0l0-1-1,0l1,0l0-1l1,1ZM984,462l0-1-1,0l0-1l0-1l1,0l0,1l0,1l0,1ZM678,325ZM679,325-1,0l0-1l1,0l0,1ZM682,322l0,1l1,0l0,1-1,0-1-1l0-1l1,0ZM685,322l0,1l0-1ZM686,318l0,1-1,0l0-1l1,0ZM680,316l1,0-1,0l0,1l0-1ZM686,315l1,0-1,0l0-1l1,0-1,1ZM677,314l1,0-1,0ZM676,313l0,1-1,0l0,1l0-1l0-1l1,0ZM479,339l0-1-1,0l0-1-1,0l1,0l0,1l1,0l0,1ZM426,302l1,0-1,0ZM432,300-1,0l1,0ZM433,300l1,0-1,0ZM934,221l0,1-1,0l0-1l1,0ZM933,221l0,1-1,0-1,0-1,1l0-1-1,0-1,0l0-1-1,0l0-1l1,0l1,0l1,0l1,0l1,0l0,1l1,0ZM513,321l0,1l0,1-1-1l0-1l1,0ZM557,668ZM557,667l1,0-1,0ZM562,667l0,1l0-1ZM552,666l0,1-1,0l0-1l1,0ZM554,665-1,0l0-1-1,0l1,0l0,1l1,0l0-1l1,0l1,0l1,0-1,0l1,0l0,1-1,1l0,1-1,0-1,0l0,1-1,0-1,0l1,0-1,0-1-1l1,0l1,0l1,0-1,0l0-1l1,0-1,0-1,0l1,0l1,0l0-1l0,1l0-1ZM556,663l1,0-1,0ZM555,663ZM554,663l1,0-1,0l1,0-1,0ZM560,663l1,0l1,0-1,0l0,1l1,0l0-1l1,0l1,1-1,0l1,0l0,1-1,0-1,1-1,0-1-1l0,1l1,0l1,0l0,1-1-1l0,1-1-1-1,0l1,1-1,0l0,1l0-1-1,0l0-1l0-1l1,0l1,0l0-1-1,0l0-1l1,0-1,0l1,0ZM556,663l1,0-1,0l0-1l0,1ZM550,662-1,0l0-1l1,1ZM764,89l1,0l0,1l0-1-1,0ZM764,88l1,1-1,0-1-1l1,0ZM763,87l0,1-1,0l0-1l1,0-1,0l1-1l0,1l1,0l0,1-1,0l0-1ZM766,86-1,0l1-1l0,1ZM764,87-1,0l0-1l1,0l0,1l1,0-1,1l0-1ZM766,86l0-1l0,1ZM765,86-1-1l1,0l0,1ZM1527,374-1,0l1,0ZM1504,365l1,0-1,0l1,0-1,1l0-1ZM1413,352l0,1l0-1ZM511,339l0-1l1,0-1,0l0,1ZM1440,332l0,1-1,0l0-1l1,0l0-1l0,1ZM509,313l0-1l0,1ZM508,312l0,1l0-1ZM514,331-1,0l0-1l1-1l0,1l0,1ZM507,308l0-1l0,1ZM1122,379ZM1563,364l1,0-1,0ZM851,217l0,1l0-1-1,0l1,0ZM849,216-1,0l1,0ZM1442,328ZM1443,324l0-1l0,1ZM1443,323-1,0l1,0-1,0l0-1l1,0l0,1ZM1442,317l0-1l0,1ZM1440,308-1,0l0-1l1,0l0,1ZM1439,305-1,0l1,0ZM510,315l0,1-1,0l1-1ZM1046,504l0,1l0,1-1,0-1,0l0-1l1,0l0-1l0-1l1,0l0,1ZM1071,502-1,0l1,0l0-1l0,1ZM1532,517l0-1l0,1ZM1535,511l0,1l0,1-1,0l0-1l0-1l1,0ZM1533,507-1,0l0,1l1,0l0,1-1,0-1,0l0-1l1,0l0-1-1,0l1,0l1,0ZM1530,506-1,0l1,0-1,1l0-1l1,0ZM1530,506l0-1l0,1ZM1519,504l0,1l1,0l0-1l1,1l0,1l1,0l0,1l1,0l0,1l1,0l0,1l0,1l1,0l1,0l0,1l1,0l0,1l1,0l0,1l1,1l0,1-1,0-1,0-1-1l0-1-1,0-1,0l0-1-1,0l0-1l0,1l0-1-1,0l0-1-1,0l0-1-1-1l1,0-1,0-1-1l1,0-1,0l0-1l0-1-1,0l1-1ZM1520,504-1,0l0-1l1,1ZM1518,502-1,0l1,0ZM1546,404ZM1398,362l0,1l0,1-1-1l1,0l0-1ZM485,308-1,0l1-1l0,1ZM497,308-1,1l0-1l1,0ZM489,306l1,0l0,1l0-1l1,1l0-1l0,1l1-1l0,1l1,0l1,0l1,0l0,1-1,0l0,1-1,0-1,0-1,0-1,0-1,0-1,0l0-1l0-1l0-1l1,0ZM156,543ZM164,512ZM159,493-1,0l1,0l0-1l0,1ZM121,492l1,1-1,0l0-1l0,1-1,0l0-1l0-1l1,0l0,1ZM118,491l0,1-1,0l0-1l1,0ZM112,487ZM111,488l0-1l0,1ZM110,486l1,0-1,0ZM133,484ZM163,455l0-1l0,1ZM160,452l0-1l0,1ZM161,451-1,0l0-1l1,0l0,1ZM156,449l0,1l0-1ZM158,447l1,0-1,0ZM155,446l1,0-1,0ZM1541,460l1,0l0,1-1,0l0-1ZM1510,460l1,1l1,1-1,0l0-1-1,0-1,0l1-1ZM1540,459l0,1l0-1ZM1538,456l1,0l0,1-1,0-1,0l0-1l1,0ZM1517,453l1,0l1,0l0,1l1,0l1,0l0,1l0,1-1,0-1,0l0-1-1,0l0-1-1-1l0,1l0-1ZM1520,451l0,1-1,0l0-1l1,0ZM1518,449l1,0l0,1l0,1-1-1l0-1ZM1511,449l1,0l1,0l1,1l0,1-1,0-1,0-1,0-1,0l0-1-1,0l0-1l0-1l1,0l0,1l1,0ZM1513,448l1,0l0,1-1-1ZM1513,448-1,0l1,0ZM1508,447ZM1501,446l1,0-1,1l0-1ZM1504,446l0-1l0,1ZM1503,445l1,0l0,1-1,0l0-1ZM1500,445l0,1l0-1l1,0-1,0ZM1510,445-1,0l1-1l0,1ZM1516,444l0,1l1,1-1,0l0,1l1,0l0,1l1,0-1,0l1,1l0,1l0,1-1-1l0-1-1,0l0-1l0-1-1-1l1-1-1,0l0-1l1,0ZM1499,444ZM1499,443l1,0l0,1-1-1ZM1501,443l1,0l0,1l0,1-1-1-1,0l1,0-1-1-1,0l0-1l1,0l0-1l1,1l0,1ZM1497,443l0-1l0-1l0,1l0,1ZM1499,443-1,0l0-1l1,0l0,1ZM1497,440l1,1l0,1-1,0l0-1l0-1ZM1505,440l0,1-1,0l0-1l1,0ZM1506,440l1,0l0,1l1,0l0,1l1,0l1,0l0,1l1,0l1,1-1,1l1,0-1,0l0-1-1,0-1,0l0-1-1,0-1-1-1-1l0-1ZM1505,439l1,0-1,0ZM1501,439l0,1l0-1ZM1505,439l0,1l0-1ZM1502,439-1,0l1-1l0,1ZM1492,439ZM1494,437-1,0l1-1l0,1ZM1495,436ZM1497,435l1,0l0,1l1,0l0,1l1,0l0,1l1,0-1,0l0,1l0-1-1,0-1-1-1-1-1-1l0-1l1,0l0,1ZM819,401-1-1l1,0l0-1l1,0l0,1l0,1-1,0ZM822,393l0,1-1-1l1,0ZM507,308ZM999,449-1,0l1,0ZM998,449l0,1-1,0l0-1l1,0ZM1040,425l1,1-1,0l0-1ZM470,289l1,0l0,1-1,0l0-1ZM468,289l0,1l1-1l0,1-1,0l0-1ZM469,288-1,0l1,0ZM11,511-1-1l1,0l0,1ZM9,509l1,0-1,0l1,1-1,0l0-1ZM8,503ZM12,497ZM1,481l0-1l0,1ZM514,345l0,1l0,1l0,1-1,1-1,0-1,0-1,0l0-1l1,0l1,0l0-1l0-1-1,0l0-1l1,0l1,0l1,0ZM516,343l0,1-1,0l0-1l1,0ZM1599,445ZM513,333-1,0l0-1l1,0l0,1ZM500,306-1,0l1,0ZM499,310-1,1l0-1l1,0ZM500,307ZM499,307ZM1545,505l1,0-1,0ZM1544,502l0-1l1,1-1,0ZM1544,497l1,0-1,0l1,0l0,1-1,0-1-1l1,0l0-1l0,1ZM1542,491l1,0l0,1-1,0l0-1-1,1l0-1l1,0ZM1543,488ZM1542,486l0,1l1,0-1,0-1,0l0-1l1,0ZM1543,486ZM1543,485-1,0l0,1-1-1l1,0l0-1l0,1l1,0ZM1539,484l0,1l1,0l0,1-1,0l0,1-1,0l0-1l0-1l0-1l0-1l1,0l0,1ZM1539,482ZM1538,481l0-1l0,1ZM1543,483l0-1l0-1l1-1l0,1l0,1-1,1ZM1542,480l0-1l1,0l0,1-1,0ZM1543,480l0,1l0-1l0-1l0-1l0,1l0,1ZM1538,481-1-1l0,1-1,0l0-1l0-1l0-1l0-1l0-1l1,0l0,1l0,1l1,0l0-1l0,1l1,0l0,1-1,0l1,0-1,0l0,1l1,0-1,0l0,1ZM1542,474l1,0-1,1l0-1ZM1542,472-1,0l0-1l1,0l0,1ZM1538,469ZM17,473l0,1-1,0-1-1-1,0l1-1l1,1l1,0ZM13,470l1,1-1,0l1,0-1,0-1,0-1,0l0-1l1,0l1,0ZM481,339-1,0l0-1l0-1l1,1l0,1ZM507,311ZM506,310ZM515,325l1,0-1,0l1,0l0,1-1,0-1,0l1-1-1,0l0-1l1,0l0,1ZM710,258-1,0l0,1l0-1-1,0l1,0l0-1l1,0l0,1ZM721,256l0,1-1,1-1,0l0-1l0-1l1,0l1,0ZM713,257-1-1l1,0l0,1ZM718,254-1,0l0,1-1,1l0,1-1,0l0-1-1,0l0-1l1,0l1-1l1,0l1,0ZM726,256-1,0l1,0l0-1l0-1l1,0l0-1l1,0l0,1-1,0l0,1-1,1ZM711,253l0,1l1,0-1,0l1,0-1,1l0-1-1,0l1-1ZM730,251l0,1-1,0-1,0l1,0l0-1l1,0l0-1l0,1ZM992,466l0,1l1,0-1,1l0-1l0-1ZM1036,508l1,0l0,1l0,1-1,0-1,0l0-1l0-1l1,0ZM514,319l0-1l1,0l0,1-1,0ZM512,317l0,1-1,1l0-1l0-1l0-1l1,1ZM514,317l1,0-1,0-1,0l0-1l1,0l0,1ZM1591,499ZM1585,498l1,0-1,0-1,0l0,1-1,0l1-1l1,0ZM1586,498l0-1l0,1ZM1590,493l0,1l0-1-1,0l1,0ZM1588,492-1-1l1,0l0,1ZM1586,490l0,1l1,0l0,1l0,1-1,1l0-1l0,1-1-1l0,1-1,0-1,0-1,0-1,0l0-1l0-1l1,0l0-1-1,0l1,0l0-1l1,0l1,0l1,0l1-1l0,1ZM1591,490l0-1l0,1ZM1582,489-1,1l0-1l1,0ZM1594,488l0-1l0,1ZM1595,484-1,0l0,1-1,0l0,1-1,0l0,1l1-1l1-1l0,1l0,1-1-1-1,1-1,0l0-1-1,1-1,0l0,1-1,0l0-1l0-1l1,0l0-1l1,0l1,0l1,0l0-1l1,0l1,0l1,0l0-1l0,1Z" /></svg>
